<?xml version="1.0" encoding="utf-8" standalone="no"?>
<!DOCTYPE svg PUBLIC "-//W3C//DTD SVG 1.1//EN"
  "http://www.w3.org/Graphics/SVG/1.1/DTD/svg11.dtd">
<svg xmlns:xlink="http://www.w3.org/1999/xlink" width="691.2pt" height="345.6pt" viewBox="0 0 691.2 345.6" xmlns="http://www.w3.org/2000/svg" version="1.1">
 <metadata>
  <rdf:RDF xmlns:dc="http://purl.org/dc/elements/1.1/" xmlns:cc="http://creativecommons.org/ns#" xmlns:rdf="http://www.w3.org/1999/02/22-rdf-syntax-ns#">
   <cc:Work>
    <dc:type rdf:resource="http://purl.org/dc/dcmitype/StillImage"/>
    <dc:date>2026-08-21T23:11:11.785275</dc:date>
    <dc:format>image/svg+xml</dc:format>
    <dc:creator>
     <cc:Agent>
      <dc:title>Matplotlib v3.11.1, https://matplotlib.org/</dc:title>
     </cc:Agent>
    </dc:creator>
   </cc:Work>
  </rdf:RDF>
 </metadata>
 <defs>
  <style type="text/css">*{stroke-linejoin: round; stroke-linecap: butt}</style>
 </defs>
 <g id="figure_1">
  <g id="patch_1">
   <path d="M 0 345.6 
L 691.2 345.6 
L 691.2 0 
L 0 0 
z
" style="fill: #ffffff"/>
  </g>
  <g id="axes_1">
   <g id="patch_2">
    <path d="M 58.042344 303.477656 
L 344.16 303.477656 
L 344.16 33.842813 
L 58.042344 33.842813 
z
" style="fill: #ffffff"/>
   </g>
   <g id="FillBetweenPolyCollection_1">
    <path d="M 107.830494 282.279287 
L 107.830494 282.279287 
L 108.48733 282.279287 
L 109.144166 282.279287 
L 109.801001 282.279287 
L 110.457837 282.279287 
L 111.114673 282.279287 
L 111.771509 282.279287 
L 112.428345 282.279287 
L 113.08518 282.279287 
L 113.742016 282.279287 
L 114.398852 282.279287 
L 115.055688 282.279287 
L 115.712523 282.279287 
L 116.369359 282.279287 
L 117.026195 282.279287 
L 117.683031 282.279287 
L 118.339866 282.279287 
L 118.996702 282.279287 
L 119.653538 282.279287 
L 120.310374 282.279287 
L 120.967209 282.279287 
L 121.624045 282.279287 
L 122.280881 282.279287 
L 122.937717 282.279287 
L 123.594552 282.279287 
L 124.251388 282.279287 
L 124.908224 282.279287 
L 125.56506 282.279287 
L 126.221895 282.279287 
L 126.878731 282.279287 
L 127.535567 282.279287 
L 128.192403 282.279287 
L 128.849238 282.279287 
L 129.506074 282.279287 
L 130.16291 282.279287 
L 130.819746 282.279287 
L 131.476582 282.279287 
L 132.133417 282.279287 
L 132.790253 282.279287 
L 133.447089 282.279287 
L 134.103925 282.279287 
L 134.76076 282.279287 
L 135.417596 282.279287 
L 136.074432 282.279287 
L 136.731268 282.279287 
L 137.388103 282.279287 
L 138.044939 282.279287 
L 138.701775 282.279287 
L 139.358611 282.279287 
L 140.015446 282.279287 
L 140.672282 282.279287 
L 141.329118 282.279287 
L 141.985954 282.279287 
L 142.642789 282.279287 
L 143.299625 282.279287 
L 143.956461 282.279287 
L 144.613297 282.279287 
L 145.270132 282.279287 
L 145.926968 282.279287 
L 146.583804 282.279287 
L 147.24064 282.279287 
L 147.897475 282.279287 
L 148.554311 282.279287 
L 149.211147 282.279287 
L 149.867983 282.279287 
L 150.524818 282.279287 
L 151.181654 282.279287 
L 151.83849 282.279287 
L 152.495326 282.279287 
L 153.152162 282.279287 
L 153.808997 282.279287 
L 154.465833 282.279287 
L 155.122669 282.279287 
L 155.779505 282.279287 
L 156.43634 282.279287 
L 157.093176 282.279287 
L 157.750012 282.279287 
L 158.406848 282.279287 
L 159.063683 282.279287 
L 159.720519 282.279287 
L 160.377355 282.279287 
L 161.034191 282.279287 
L 161.691026 282.279287 
L 162.347862 282.279287 
L 163.004698 282.279287 
L 163.661534 282.279287 
L 164.318369 282.279287 
L 164.975205 282.279287 
L 165.632041 282.279287 
L 166.288877 282.279287 
L 166.945712 282.279287 
L 167.602548 282.279287 
L 168.259384 282.279287 
L 168.91622 282.279287 
L 169.573055 282.279287 
L 170.229891 282.279287 
L 170.886727 282.279287 
L 171.543563 282.279287 
L 172.200399 282.279287 
L 172.857234 282.279287 
L 173.51407 282.279287 
L 174.170906 282.279287 
L 174.827742 282.279287 
L 175.484577 282.279287 
L 176.141413 282.279287 
L 176.798249 282.279287 
L 177.455085 282.279287 
L 178.11192 282.279287 
L 178.768756 282.279287 
L 179.425592 282.279287 
L 180.082428 282.279287 
L 180.739263 282.279287 
L 181.396099 282.279287 
L 182.052935 282.279287 
L 182.709771 282.279287 
L 183.366606 282.279287 
L 184.023442 282.279287 
L 184.680278 282.279287 
L 185.337114 282.279287 
L 185.993949 282.279287 
L 186.650785 282.279287 
L 187.307621 282.279287 
L 187.964457 282.279287 
L 188.621292 282.279287 
L 189.278128 282.279287 
L 189.934964 282.279287 
L 190.5918 282.279287 
L 191.248636 282.279287 
L 191.905471 282.279287 
L 192.562307 282.279287 
L 193.219143 282.279287 
L 193.875979 282.279287 
L 194.532814 282.279287 
L 195.18965 282.279287 
L 195.846486 282.279287 
L 196.503322 282.279287 
L 197.160157 282.279287 
L 197.816993 282.279287 
L 198.473829 282.279287 
L 199.130665 282.279287 
L 199.7875 282.279287 
L 200.444336 282.279287 
L 201.101172 282.279287 
L 201.101172 282.279287 
L 201.101172 282.279287 
L 200.444336 282.279287 
L 199.7875 282.805301 
L 199.130665 282.805301 
L 198.473829 282.805301 
L 197.816993 283.068308 
L 197.160157 283.331315 
L 196.503322 283.594322 
L 195.846486 283.857329 
L 195.18965 283.857329 
L 194.532814 284.120336 
L 193.875979 284.120336 
L 193.219143 284.383343 
L 192.562307 284.64635 
L 191.905471 284.909357 
L 191.248636 285.172364 
L 190.5918 285.172364 
L 189.934964 285.172364 
L 189.278128 285.435372 
L 188.621292 285.698379 
L 187.964457 285.961386 
L 187.307621 286.224393 
L 186.650785 286.224393 
L 185.993949 286.224393 
L 185.337114 286.224393 
L 184.680278 286.750407 
L 184.023442 286.750407 
L 183.366606 287.013414 
L 182.709771 287.276421 
L 182.052935 287.276421 
L 181.396099 287.276421 
L 180.739263 287.276421 
L 180.082428 287.539428 
L 179.425592 287.802435 
L 178.768756 288.065442 
L 178.11192 288.065442 
L 177.455085 288.328449 
L 176.798249 288.328449 
L 176.141413 288.328449 
L 175.484577 288.328449 
L 174.827742 288.591456 
L 174.170906 288.854463 
L 173.51407 288.854463 
L 172.857234 289.11747 
L 172.200399 289.11747 
L 171.543563 289.11747 
L 170.886727 289.11747 
L 170.229891 289.11747 
L 169.573055 289.380478 
L 168.91622 289.643485 
L 168.259384 289.643485 
L 167.602548 289.906492 
L 166.945712 289.906492 
L 166.288877 289.906492 
L 165.632041 289.906492 
L 164.975205 289.906492 
L 164.318369 289.906492 
L 163.661534 290.169499 
L 163.004698 290.169499 
L 162.347862 290.432506 
L 161.691026 290.432506 
L 161.034191 290.695513 
L 160.377355 290.695513 
L 159.720519 290.695513 
L 159.063683 290.695513 
L 158.406848 290.695513 
L 157.750012 290.695513 
L 157.093176 290.695513 
L 156.43634 290.95852 
L 155.779505 290.95852 
L 155.122669 290.95852 
L 154.465833 290.95852 
L 153.808997 291.221527 
L 153.152162 291.221527 
L 152.495326 291.221527 
L 151.83849 290.95852 
L 151.181654 290.95852 
L 150.524818 290.95852 
L 149.867983 291.221527 
L 149.211147 291.221527 
L 148.554311 291.221527 
L 147.897475 291.221527 
L 147.24064 291.221527 
L 146.583804 291.221527 
L 145.926968 291.221527 
L 145.270132 291.221527 
L 144.613297 291.221527 
L 143.956461 290.95852 
L 143.299625 290.95852 
L 142.642789 290.95852 
L 141.985954 291.221527 
L 141.329118 290.95852 
L 140.672282 290.95852 
L 140.015446 290.95852 
L 139.358611 290.95852 
L 138.701775 290.95852 
L 138.044939 290.95852 
L 137.388103 290.95852 
L 136.731268 290.695513 
L 136.074432 290.695513 
L 135.417596 290.432506 
L 134.76076 290.432506 
L 134.103925 290.432506 
L 133.447089 290.432506 
L 132.790253 290.432506 
L 132.133417 290.169499 
L 131.476582 290.169499 
L 130.819746 290.169499 
L 130.16291 290.169499 
L 129.506074 289.906492 
L 128.849238 289.906492 
L 128.192403 289.906492 
L 127.535567 289.643485 
L 126.878731 289.380478 
L 126.221895 289.11747 
L 125.56506 289.11747 
L 124.908224 288.854463 
L 124.251388 288.591456 
L 123.594552 288.591456 
L 122.937717 288.591456 
L 122.280881 288.328449 
L 121.624045 288.065442 
L 120.967209 288.065442 
L 120.310374 287.802435 
L 119.653538 287.802435 
L 118.996702 287.539428 
L 118.339866 287.276421 
L 117.683031 287.013414 
L 117.026195 286.750407 
L 116.369359 286.4874 
L 115.712523 286.224393 
L 115.055688 285.961386 
L 114.398852 285.435372 
L 113.742016 285.172364 
L 113.08518 284.909357 
L 112.428345 284.64635 
L 111.771509 284.383343 
L 111.114673 284.120336 
L 110.457837 283.857329 
L 109.801001 283.331315 
L 109.144166 283.068308 
L 108.48733 282.542294 
L 107.830494 282.279287 
z
" clip-path="url(#pcc345d114d)" style="fill: url(#hae615dec67); stroke: #ffa500"/>
   </g>
   <g id="matplotlib.axis_1">
    <g id="xtick_1">
     <g id="line2d_1">
      <defs>
       <path id="m8427e886d3" d="M 0 0 
L 0 3.5 
" style="stroke: #000000; stroke-width: 0.8"/>
      </defs>
      <g>
       <use xlink:href="#m8427e886d3" x="69.73402" y="303.477656" style="stroke: #000000; stroke-width: 0.8"/>
      </g>
     </g>
     <g id="text_1">
      <!-- 0.00 -->
      <g transform="translate(58.601208 318.075312) scale(0.1 -0.1)">
       <defs>
        <path id="DejaVuSans-13" d="M 2034 4250 
Q 1547 4250 1301 3770 
Q 1056 3291 1056 2328 
Q 1056 1369 1301 889 
Q 1547 409 2034 409 
Q 2525 409 2770 889 
Q 3016 1369 3016 2328 
Q 3016 3291 2770 3770 
Q 2525 4250 2034 4250 
z
M 2034 4750 
Q 2819 4750 3233 4129 
Q 3647 3509 3647 2328 
Q 3647 1150 3233 529 
Q 2819 -91 2034 -91 
Q 1250 -91 836 529 
Q 422 1150 422 2328 
Q 422 3509 836 4129 
Q 1250 4750 2034 4750 
z
" transform="scale(0.015625)"/>
        <path id="DejaVuSans-11" d="M 684 794 
L 1344 794 
L 1344 0 
L 684 0 
L 684 794 
z
" transform="scale(0.015625)"/>
       </defs>
       <use xlink:href="#DejaVuSans-13"/>
       <use xlink:href="#DejaVuSans-11" transform="translate(63.625 0)"/>
       <use xlink:href="#DejaVuSans-13" transform="translate(95.40625 0)"/>
       <use xlink:href="#DejaVuSans-13" transform="translate(159.03125 0)"/>
      </g>
     </g>
    </g>
    <g id="xtick_2">
     <g id="line2d_2">
      <g>
       <use xlink:href="#m8427e886d3" x="102.575808" y="303.477656" style="stroke: #000000; stroke-width: 0.8"/>
      </g>
     </g>
     <g id="text_2">
      <!-- 0.25 -->
      <g transform="translate(91.442996 318.075312) scale(0.1 -0.1)">
       <defs>
        <path id="DejaVuSans-15" d="M 1228 531 
L 3431 531 
L 3431 0 
L 469 0 
L 469 531 
Q 828 903 1448 1529 
Q 2069 2156 2228 2338 
Q 2531 2678 2651 2914 
Q 2772 3150 2772 3378 
Q 2772 3750 2511 3984 
Q 2250 4219 1831 4219 
Q 1534 4219 1204 4116 
Q 875 4013 500 3803 
L 500 4441 
Q 881 4594 1212 4672 
Q 1544 4750 1819 4750 
Q 2544 4750 2975 4387 
Q 3406 4025 3406 3419 
Q 3406 3131 3298 2873 
Q 3191 2616 2906 2266 
Q 2828 2175 2409 1742 
Q 1991 1309 1228 531 
z
" transform="scale(0.015625)"/>
        <path id="DejaVuSans-18" d="M 691 4666 
L 3169 4666 
L 3169 4134 
L 1269 4134 
L 1269 2991 
Q 1406 3038 1543 3061 
Q 1681 3084 1819 3084 
Q 2600 3084 3056 2656 
Q 3513 2228 3513 1497 
Q 3513 744 3044 326 
Q 2575 -91 1722 -91 
Q 1428 -91 1123 -41 
Q 819 9 494 109 
L 494 744 
Q 775 591 1075 516 
Q 1375 441 1709 441 
Q 2250 441 2565 725 
Q 2881 1009 2881 1497 
Q 2881 1984 2565 2268 
Q 2250 2553 1709 2553 
Q 1456 2553 1204 2497 
Q 953 2441 691 2322 
L 691 4666 
z
" transform="scale(0.015625)"/>
       </defs>
       <use xlink:href="#DejaVuSans-13"/>
       <use xlink:href="#DejaVuSans-11" transform="translate(63.625 0)"/>
       <use xlink:href="#DejaVuSans-15" transform="translate(95.40625 0)"/>
       <use xlink:href="#DejaVuSans-18" transform="translate(159.03125 0)"/>
      </g>
     </g>
    </g>
    <g id="xtick_3">
     <g id="line2d_3">
      <g>
       <use xlink:href="#m8427e886d3" x="135.417596" y="303.477656" style="stroke: #000000; stroke-width: 0.8"/>
      </g>
     </g>
     <g id="text_3">
      <!-- 0.50 -->
      <g transform="translate(124.284784 318.075312) scale(0.1 -0.1)">
       <use xlink:href="#DejaVuSans-13"/>
       <use xlink:href="#DejaVuSans-11" transform="translate(63.625 0)"/>
       <use xlink:href="#DejaVuSans-18" transform="translate(95.40625 0)"/>
       <use xlink:href="#DejaVuSans-13" transform="translate(159.03125 0)"/>
      </g>
     </g>
    </g>
    <g id="xtick_4">
     <g id="line2d_4">
      <g>
       <use xlink:href="#m8427e886d3" x="168.259384" y="303.477656" style="stroke: #000000; stroke-width: 0.8"/>
      </g>
     </g>
     <g id="text_4">
      <!-- 0.75 -->
      <g transform="translate(157.126571 318.075312) scale(0.1 -0.1)">
       <defs>
        <path id="DejaVuSans-1a" d="M 525 4666 
L 3525 4666 
L 3525 4397 
L 1831 0 
L 1172 0 
L 2766 4134 
L 525 4134 
L 525 4666 
z
" transform="scale(0.015625)"/>
       </defs>
       <use xlink:href="#DejaVuSans-13"/>
       <use xlink:href="#DejaVuSans-11" transform="translate(63.625 0)"/>
       <use xlink:href="#DejaVuSans-1a" transform="translate(95.40625 0)"/>
       <use xlink:href="#DejaVuSans-18" transform="translate(159.03125 0)"/>
      </g>
     </g>
    </g>
    <g id="xtick_5">
     <g id="line2d_5">
      <g>
       <use xlink:href="#m8427e886d3" x="201.101172" y="303.477656" style="stroke: #000000; stroke-width: 0.8"/>
      </g>
     </g>
     <g id="text_5">
      <!-- 1.00 -->
      <g transform="translate(189.968359 318.075312) scale(0.1 -0.1)">
       <defs>
        <path id="DejaVuSans-14" d="M 794 531 
L 1825 531 
L 1825 4091 
L 703 3866 
L 703 4441 
L 1819 4666 
L 2450 4666 
L 2450 531 
L 3481 531 
L 3481 0 
L 794 0 
L 794 531 
z
" transform="scale(0.015625)"/>
       </defs>
       <use xlink:href="#DejaVuSans-14"/>
       <use xlink:href="#DejaVuSans-11" transform="translate(63.625 0)"/>
       <use xlink:href="#DejaVuSans-13" transform="translate(95.40625 0)"/>
       <use xlink:href="#DejaVuSans-13" transform="translate(159.03125 0)"/>
      </g>
     </g>
    </g>
    <g id="xtick_6">
     <g id="line2d_6">
      <g>
       <use xlink:href="#m8427e886d3" x="233.94296" y="303.477656" style="stroke: #000000; stroke-width: 0.8"/>
      </g>
     </g>
     <g id="text_6">
      <!-- 1.25 -->
      <g transform="translate(222.810147 318.075312) scale(0.1 -0.1)">
       <use xlink:href="#DejaVuSans-14"/>
       <use xlink:href="#DejaVuSans-11" transform="translate(63.625 0)"/>
       <use xlink:href="#DejaVuSans-15" transform="translate(95.40625 0)"/>
       <use xlink:href="#DejaVuSans-18" transform="translate(159.03125 0)"/>
      </g>
     </g>
    </g>
    <g id="xtick_7">
     <g id="line2d_7">
      <g>
       <use xlink:href="#m8427e886d3" x="266.784748" y="303.477656" style="stroke: #000000; stroke-width: 0.8"/>
      </g>
     </g>
     <g id="text_7">
      <!-- 1.50 -->
      <g transform="translate(255.651935 318.075312) scale(0.1 -0.1)">
       <use xlink:href="#DejaVuSans-14"/>
       <use xlink:href="#DejaVuSans-11" transform="translate(63.625 0)"/>
       <use xlink:href="#DejaVuSans-18" transform="translate(95.40625 0)"/>
       <use xlink:href="#DejaVuSans-13" transform="translate(159.03125 0)"/>
      </g>
     </g>
    </g>
    <g id="xtick_8">
     <g id="line2d_8">
      <g>
       <use xlink:href="#m8427e886d3" x="299.626536" y="303.477656" style="stroke: #000000; stroke-width: 0.8"/>
      </g>
     </g>
     <g id="text_8">
      <!-- 1.75 -->
      <g transform="translate(288.493723 318.075312) scale(0.1 -0.1)">
       <use xlink:href="#DejaVuSans-14"/>
       <use xlink:href="#DejaVuSans-11" transform="translate(63.625 0)"/>
       <use xlink:href="#DejaVuSans-1a" transform="translate(95.40625 0)"/>
       <use xlink:href="#DejaVuSans-18" transform="translate(159.03125 0)"/>
      </g>
     </g>
    </g>
    <g id="xtick_9">
     <g id="line2d_9">
      <g>
       <use xlink:href="#m8427e886d3" x="332.468324" y="303.477656" style="stroke: #000000; stroke-width: 0.8"/>
      </g>
     </g>
     <g id="text_9">
      <!-- 2.00 -->
      <g transform="translate(321.335511 318.075312) scale(0.1 -0.1)">
       <use xlink:href="#DejaVuSans-15"/>
       <use xlink:href="#DejaVuSans-11" transform="translate(63.625 0)"/>
       <use xlink:href="#DejaVuSans-13" transform="translate(95.40625 0)"/>
       <use xlink:href="#DejaVuSans-13" transform="translate(159.03125 0)"/>
      </g>
     </g>
    </g>
    <g id="text_10">
     <!-- $\omega$ value -->
     <g transform="translate(181.651172 332.077656) scale(0.1 -0.1)">
      <defs>
       <path id="DejaVuSans-Oblique-35d" d="M 1369 -91 
Q 72 -91 434 1766 
Q 575 2500 1256 3500 
L 1875 3500 
Q 1231 2500 1088 1750 
Q 819 397 1519 397 
Q 2166 397 2478 2078 
L 3009 2078 
Q 2669 388 3316 397 
Q 4013 403 4275 1750 
Q 4419 2500 4169 3500 
L 4788 3500 
Q 5075 2500 4934 1766 
Q 4578 -94 3278 -91 
Q 2428 -88 2503 844 
Q 2194 -91 1369 -91 
z
" transform="scale(0.015625)"/>
       <path id="DejaVuSans-3" transform="scale(0.015625)"/>
       <path id="DejaVuSans-59" d="M 191 3500 
L 800 3500 
L 1894 563 
L 2988 3500 
L 3597 3500 
L 2284 0 
L 1503 0 
L 191 3500 
z
" transform="scale(0.015625)"/>
       <path id="DejaVuSans-44" d="M 2194 1759 
Q 1497 1759 1228 1600 
Q 959 1441 959 1056 
Q 959 750 1161 570 
Q 1363 391 1709 391 
Q 2188 391 2477 730 
Q 2766 1069 2766 1631 
L 2766 1759 
L 2194 1759 
z
M 3341 1997 
L 3341 0 
L 2766 0 
L 2766 531 
Q 2569 213 2275 61 
Q 1981 -91 1556 -91 
Q 1019 -91 701 211 
Q 384 513 384 1019 
Q 384 1609 779 1909 
Q 1175 2209 1959 2209 
L 2766 2209 
L 2766 2266 
Q 2766 2663 2505 2880 
Q 2244 3097 1772 3097 
Q 1472 3097 1187 3025 
Q 903 2953 641 2809 
L 641 3341 
Q 956 3463 1253 3523 
Q 1550 3584 1831 3584 
Q 2591 3584 2966 3190 
Q 3341 2797 3341 1997 
z
" transform="scale(0.015625)"/>
       <path id="DejaVuSans-4f" d="M 603 4863 
L 1178 4863 
L 1178 0 
L 603 0 
L 603 4863 
z
" transform="scale(0.015625)"/>
       <path id="DejaVuSans-58" d="M 544 1381 
L 544 3500 
L 1119 3500 
L 1119 1403 
Q 1119 906 1312 657 
Q 1506 409 1894 409 
Q 2359 409 2629 706 
Q 2900 1003 2900 1516 
L 2900 3500 
L 3475 3500 
L 3475 0 
L 2900 0 
L 2900 538 
Q 2691 219 2414 64 
Q 2138 -91 1772 -91 
Q 1169 -91 856 284 
Q 544 659 544 1381 
z
M 1991 3584 
L 1991 3584 
z
" transform="scale(0.015625)"/>
       <path id="DejaVuSans-48" d="M 3597 1894 
L 3597 1613 
L 953 1613 
Q 991 1019 1311 708 
Q 1631 397 2203 397 
Q 2534 397 2845 478 
Q 3156 559 3463 722 
L 3463 178 
Q 3153 47 2828 -22 
Q 2503 -91 2169 -91 
Q 1331 -91 842 396 
Q 353 884 353 1716 
Q 353 2575 817 3079 
Q 1281 3584 2069 3584 
Q 2775 3584 3186 3129 
Q 3597 2675 3597 1894 
z
M 3022 2063 
Q 3016 2534 2758 2815 
Q 2500 3097 2075 3097 
Q 1594 3097 1305 2825 
Q 1016 2553 972 2059 
L 3022 2063 
z
" transform="scale(0.015625)"/>
      </defs>
      <use xlink:href="#DejaVuSans-Oblique-35d" transform="translate(0 0.015625)"/>
      <use xlink:href="#DejaVuSans-3" transform="translate(83.740234 0.015625)"/>
      <use xlink:href="#DejaVuSans-59" transform="translate(115.527344 0.015625)"/>
      <use xlink:href="#DejaVuSans-44" transform="translate(174.707031 0.015625)"/>
      <use xlink:href="#DejaVuSans-4f" transform="translate(235.986328 0.015625)"/>
      <use xlink:href="#DejaVuSans-58" transform="translate(263.769531 0.015625)"/>
      <use xlink:href="#DejaVuSans-48" transform="translate(327.148438 0.015625)"/>
     </g>
    </g>
   </g>
   <g id="matplotlib.axis_2">
    <g id="ytick_1">
     <g id="line2d_10">
      <defs>
       <path id="mbd99ca5a98" d="M 0 0 
L -3.5 0 
" style="stroke: #000000; stroke-width: 0.8"/>
      </defs>
      <g>
       <use xlink:href="#mbd99ca5a98" x="58.042344" y="256.767601" style="stroke: #000000; stroke-width: 0.8"/>
      </g>
     </g>
     <g id="text_11">
      <!-- 200 -->
      <g transform="translate(31.954844 260.56643) scale(0.1 -0.1)">
       <use xlink:href="#DejaVuSans-15"/>
       <use xlink:href="#DejaVuSans-13" transform="translate(63.625 0)"/>
       <use xlink:href="#DejaVuSans-13" transform="translate(127.25 0)"/>
      </g>
     </g>
    </g>
    <g id="ytick_2">
     <g id="line2d_11">
      <g>
       <use xlink:href="#mbd99ca5a98" x="58.042344" y="204.166188" style="stroke: #000000; stroke-width: 0.8"/>
      </g>
     </g>
     <g id="text_12">
      <!-- 400 -->
      <g transform="translate(31.954844 207.965016) scale(0.1 -0.1)">
       <defs>
        <path id="DejaVuSans-17" d="M 2419 4116 
L 825 1625 
L 2419 1625 
L 2419 4116 
z
M 2253 4666 
L 3047 4666 
L 3047 1625 
L 3713 1625 
L 3713 1100 
L 3047 1100 
L 3047 0 
L 2419 0 
L 2419 1100 
L 313 1100 
L 313 1709 
L 2253 4666 
z
" transform="scale(0.015625)"/>
       </defs>
       <use xlink:href="#DejaVuSans-17"/>
       <use xlink:href="#DejaVuSans-13" transform="translate(63.625 0)"/>
       <use xlink:href="#DejaVuSans-13" transform="translate(127.25 0)"/>
      </g>
     </g>
    </g>
    <g id="ytick_3">
     <g id="line2d_12">
      <g>
       <use xlink:href="#mbd99ca5a98" x="58.042344" y="151.564775" style="stroke: #000000; stroke-width: 0.8"/>
      </g>
     </g>
     <g id="text_13">
      <!-- 600 -->
      <g transform="translate(31.954844 155.363603) scale(0.1 -0.1)">
       <defs>
        <path id="DejaVuSans-19" d="M 2113 2584 
Q 1688 2584 1439 2293 
Q 1191 2003 1191 1497 
Q 1191 994 1439 701 
Q 1688 409 2113 409 
Q 2538 409 2786 701 
Q 3034 994 3034 1497 
Q 3034 2003 2786 2293 
Q 2538 2584 2113 2584 
z
M 3366 4563 
L 3366 3988 
Q 3128 4100 2886 4159 
Q 2644 4219 2406 4219 
Q 1781 4219 1451 3797 
Q 1122 3375 1075 2522 
Q 1259 2794 1537 2939 
Q 1816 3084 2150 3084 
Q 2853 3084 3261 2657 
Q 3669 2231 3669 1497 
Q 3669 778 3244 343 
Q 2819 -91 2113 -91 
Q 1303 -91 875 529 
Q 447 1150 447 2328 
Q 447 3434 972 4092 
Q 1497 4750 2381 4750 
Q 2619 4750 2861 4703 
Q 3103 4656 3366 4563 
z
" transform="scale(0.015625)"/>
       </defs>
       <use xlink:href="#DejaVuSans-19"/>
       <use xlink:href="#DejaVuSans-13" transform="translate(63.625 0)"/>
       <use xlink:href="#DejaVuSans-13" transform="translate(127.25 0)"/>
      </g>
     </g>
    </g>
    <g id="ytick_4">
     <g id="line2d_13">
      <g>
       <use xlink:href="#mbd99ca5a98" x="58.042344" y="98.963362" style="stroke: #000000; stroke-width: 0.8"/>
      </g>
     </g>
     <g id="text_14">
      <!-- 800 -->
      <g transform="translate(31.954844 102.76219) scale(0.1 -0.1)">
       <defs>
        <path id="DejaVuSans-1b" d="M 2034 2216 
Q 1584 2216 1326 1975 
Q 1069 1734 1069 1313 
Q 1069 891 1326 650 
Q 1584 409 2034 409 
Q 2484 409 2743 651 
Q 3003 894 3003 1313 
Q 3003 1734 2745 1975 
Q 2488 2216 2034 2216 
z
M 1403 2484 
Q 997 2584 770 2862 
Q 544 3141 544 3541 
Q 544 4100 942 4425 
Q 1341 4750 2034 4750 
Q 2731 4750 3128 4425 
Q 3525 4100 3525 3541 
Q 3525 3141 3298 2862 
Q 3072 2584 2669 2484 
Q 3125 2378 3379 2068 
Q 3634 1759 3634 1313 
Q 3634 634 3220 271 
Q 2806 -91 2034 -91 
Q 1263 -91 848 271 
Q 434 634 434 1313 
Q 434 1759 690 2068 
Q 947 2378 1403 2484 
z
M 1172 3481 
Q 1172 3119 1398 2916 
Q 1625 2713 2034 2713 
Q 2441 2713 2670 2916 
Q 2900 3119 2900 3481 
Q 2900 3844 2670 4047 
Q 2441 4250 2034 4250 
Q 1625 4250 1398 4047 
Q 1172 3844 1172 3481 
z
" transform="scale(0.015625)"/>
       </defs>
       <use xlink:href="#DejaVuSans-1b"/>
       <use xlink:href="#DejaVuSans-13" transform="translate(63.625 0)"/>
       <use xlink:href="#DejaVuSans-13" transform="translate(127.25 0)"/>
      </g>
     </g>
    </g>
    <g id="ytick_5">
     <g id="line2d_14">
      <g>
       <use xlink:href="#mbd99ca5a98" x="58.042344" y="46.361949" style="stroke: #000000; stroke-width: 0.8"/>
      </g>
     </g>
     <g id="text_15">
      <!-- 1000 -->
      <g transform="translate(25.592344 50.160777) scale(0.1 -0.1)">
       <use xlink:href="#DejaVuSans-14"/>
       <use xlink:href="#DejaVuSans-13" transform="translate(63.625 0)"/>
       <use xlink:href="#DejaVuSans-13" transform="translate(127.25 0)"/>
       <use xlink:href="#DejaVuSans-13" transform="translate(190.875 0)"/>
      </g>
     </g>
    </g>
    <g id="text_16">
     <!-- Iteration Count -->
     <g transform="translate(19.19 206.306328) rotate(-90) scale(0.1 -0.1)">
      <defs>
       <path id="DejaVuSans-2c" d="M 628 4666 
L 1259 4666 
L 1259 0 
L 628 0 
L 628 4666 
z
" transform="scale(0.015625)"/>
       <path id="DejaVuSans-57" d="M 1172 4494 
L 1172 3500 
L 2356 3500 
L 2356 3053 
L 1172 3053 
L 1172 1153 
Q 1172 725 1289 603 
Q 1406 481 1766 481 
L 2356 481 
L 2356 0 
L 1766 0 
Q 1100 0 847 248 
Q 594 497 594 1153 
L 594 3053 
L 172 3053 
L 172 3500 
L 594 3500 
L 594 4494 
L 1172 4494 
z
" transform="scale(0.015625)"/>
       <path id="DejaVuSans-55" d="M 2631 2963 
Q 2534 3019 2420 3045 
Q 2306 3072 2169 3072 
Q 1681 3072 1420 2755 
Q 1159 2438 1159 1844 
L 1159 0 
L 581 0 
L 581 3500 
L 1159 3500 
L 1159 2956 
Q 1341 3275 1631 3429 
Q 1922 3584 2338 3584 
Q 2397 3584 2469 3576 
Q 2541 3569 2628 3553 
L 2631 2963 
z
" transform="scale(0.015625)"/>
       <path id="DejaVuSans-4c" d="M 603 3500 
L 1178 3500 
L 1178 0 
L 603 0 
L 603 3500 
z
M 603 4863 
L 1178 4863 
L 1178 4134 
L 603 4134 
L 603 4863 
z
" transform="scale(0.015625)"/>
       <path id="DejaVuSans-52" d="M 1959 3097 
Q 1497 3097 1228 2736 
Q 959 2375 959 1747 
Q 959 1119 1226 758 
Q 1494 397 1959 397 
Q 2419 397 2687 759 
Q 2956 1122 2956 1747 
Q 2956 2369 2687 2733 
Q 2419 3097 1959 3097 
z
M 1959 3584 
Q 2709 3584 3137 3096 
Q 3566 2609 3566 1747 
Q 3566 888 3137 398 
Q 2709 -91 1959 -91 
Q 1206 -91 779 398 
Q 353 888 353 1747 
Q 353 2609 779 3096 
Q 1206 3584 1959 3584 
z
" transform="scale(0.015625)"/>
       <path id="DejaVuSans-51" d="M 3513 2113 
L 3513 0 
L 2938 0 
L 2938 2094 
Q 2938 2591 2744 2837 
Q 2550 3084 2163 3084 
Q 1697 3084 1428 2787 
Q 1159 2491 1159 1978 
L 1159 0 
L 581 0 
L 581 3500 
L 1159 3500 
L 1159 2956 
Q 1366 3272 1645 3428 
Q 1925 3584 2291 3584 
Q 2894 3584 3203 3211 
Q 3513 2838 3513 2113 
z
" transform="scale(0.015625)"/>
       <path id="DejaVuSans-26" d="M 4122 4306 
L 4122 3641 
Q 3803 3938 3442 4084 
Q 3081 4231 2675 4231 
Q 1875 4231 1450 3742 
Q 1025 3253 1025 2328 
Q 1025 1406 1450 917 
Q 1875 428 2675 428 
Q 3081 428 3442 575 
Q 3803 722 4122 1019 
L 4122 359 
Q 3791 134 3420 21 
Q 3050 -91 2638 -91 
Q 1578 -91 968 557 
Q 359 1206 359 2328 
Q 359 3453 968 4101 
Q 1578 4750 2638 4750 
Q 3056 4750 3426 4639 
Q 3797 4528 4122 4306 
z
" transform="scale(0.015625)"/>
      </defs>
      <use xlink:href="#DejaVuSans-2c"/>
      <use xlink:href="#DejaVuSans-57" transform="translate(29.5 0)"/>
      <use xlink:href="#DejaVuSans-48" transform="translate(68.703125 0)"/>
      <use xlink:href="#DejaVuSans-55" transform="translate(130.234375 0)"/>
      <use xlink:href="#DejaVuSans-44" transform="translate(171.34375 0)"/>
      <use xlink:href="#DejaVuSans-57" transform="translate(232.625 0)"/>
      <use xlink:href="#DejaVuSans-4c" transform="translate(271.828125 0)"/>
      <use xlink:href="#DejaVuSans-52" transform="translate(299.609375 0)"/>
      <use xlink:href="#DejaVuSans-51" transform="translate(360.796875 0)"/>
      <use xlink:href="#DejaVuSans-3" transform="translate(424.171875 0)"/>
      <use xlink:href="#DejaVuSans-26" transform="translate(455.953125 0)"/>
      <use xlink:href="#DejaVuSans-52" transform="translate(525.78125 0)"/>
      <use xlink:href="#DejaVuSans-58" transform="translate(586.96875 0)"/>
      <use xlink:href="#DejaVuSans-51" transform="translate(650.34375 0)"/>
      <use xlink:href="#DejaVuSans-57" transform="translate(713.71875 0)"/>
     </g>
    </g>
   </g>
   <g id="line2d_15">
    <path d="M 71.047692 282.279287 
L 331.154652 282.279287 
L 331.154652 282.279287 
" clip-path="url(#pcc345d114d)" style="fill: none; stroke: #ffa500; stroke-width: 1.5; stroke-linecap: square"/>
   </g>
   <g id="line2d_16">
    <path d="M 71.047692 46.098942 
L 73.018199 46.098942 
L 73.675035 69.243564 
L 74.331871 100.278397 
L 74.988706 123.949033 
L 75.645542 142.885542 
L 76.302378 158.139952 
L 77.616049 181.547581 
L 78.929721 198.64304 
L 80.243392 211.530386 
L 81.557064 222.050669 
L 82.870735 230.466895 
L 84.184407 237.568086 
L 85.498078 243.617248 
L 86.81175 248.614382 
L 88.125421 253.085502 
L 90.095929 258.345644 
L 92.723272 264.394806 
L 93.380108 265.446835 
L 94.036943 266.76187 
L 96.664286 270.969983 
L 97.321122 271.759004 
L 97.977958 272.811032 
L 98.634794 273.600054 
L 99.291629 274.652082 
L 100.605301 276.230124 
L 102.575808 277.808167 
L 103.232644 278.597188 
L 105.859987 280.701244 
L 106.516823 281.490266 
L 107.173658 281.753273 
L 107.830494 282.279287 
L 108.48733 282.542294 
L 109.144166 283.068308 
L 109.801001 283.331315 
L 110.457837 283.857329 
L 114.398852 285.435372 
L 115.055688 285.961386 
L 119.653538 287.802435 
L 120.310374 287.802435 
L 120.967209 288.065442 
L 121.624045 288.065442 
L 122.937717 288.591456 
L 124.251388 288.591456 
L 125.56506 289.11747 
L 126.221895 289.11747 
L 128.192403 289.906492 
L 129.506074 289.906492 
L 130.16291 290.169499 
L 132.133417 290.169499 
L 132.790253 290.432506 
L 135.417596 290.432506 
L 136.074432 290.695513 
L 136.731268 290.695513 
L 137.388103 290.95852 
L 141.329118 290.95852 
L 141.985954 291.221527 
L 142.642789 290.95852 
L 143.956461 290.95852 
L 144.613297 291.221527 
L 149.867983 291.221527 
L 150.524818 290.95852 
L 151.83849 290.95852 
L 152.495326 291.221527 
L 153.808997 291.221527 
L 154.465833 290.95852 
L 156.43634 290.95852 
L 157.093176 290.695513 
L 161.034191 290.695513 
L 161.691026 290.432506 
L 162.347862 290.432506 
L 163.004698 290.169499 
L 163.661534 290.169499 
L 164.318369 289.906492 
L 167.602548 289.906492 
L 168.259384 289.643485 
L 168.91622 289.643485 
L 170.229891 289.11747 
L 172.857234 289.11747 
L 173.51407 288.854463 
L 174.170906 288.854463 
L 175.484577 288.328449 
L 177.455085 288.328449 
L 178.11192 288.065442 
L 178.768756 288.065442 
L 180.739263 287.276421 
L 182.709771 287.276421 
L 184.023442 286.750407 
L 184.680278 286.750407 
L 185.337114 286.224393 
L 187.307621 286.224393 
L 189.934964 285.172364 
L 191.248636 285.172364 
L 193.875979 284.120336 
L 194.532814 284.120336 
L 195.18965 283.857329 
L 195.846486 283.857329 
L 198.473829 282.805301 
L 199.7875 282.805301 
L 200.444336 282.279287 
L 201.101172 282.279287 
L 201.758008 281.753273 
L 202.414843 281.753273 
L 203.071679 281.490266 
L 203.728515 281.490266 
L 204.385351 280.964251 
L 205.042186 280.964251 
L 205.699022 280.438237 
L 206.355858 280.438237 
L 208.326365 279.649216 
L 208.983201 279.123202 
L 209.640037 279.123202 
L 211.610544 278.334181 
L 212.26738 277.808167 
L 212.924216 277.808167 
L 214.237887 277.282153 
L 214.894723 276.756138 
L 215.551559 276.493131 
L 216.208394 276.493131 
L 217.522066 275.967117 
L 218.178902 275.441103 
L 218.835737 275.178096 
L 219.492573 275.178096 
L 220.806245 274.126068 
L 221.46308 273.863061 
L 222.119916 273.863061 
L 223.433588 272.811032 
L 224.090423 272.811032 
L 224.747259 272.548025 
L 226.060931 271.495997 
L 226.717766 271.23299 
L 227.374602 271.23299 
L 228.688274 270.180962 
L 229.345109 269.917955 
L 230.658781 268.865926 
L 231.315617 268.602919 
L 231.972453 268.602919 
L 232.629288 267.550891 
L 233.286124 267.287884 
L 233.94296 267.287884 
L 234.599796 266.76187 
L 235.256631 265.972849 
L 235.913467 265.972849 
L 236.570303 265.446835 
L 237.227139 264.657813 
L 237.883974 264.657813 
L 238.54081 264.131799 
L 239.197646 263.342778 
L 240.511317 262.816764 
L 241.168153 262.027743 
L 241.824989 261.764736 
L 243.795496 260.186693 
L 244.452332 259.397672 
L 245.109168 259.134665 
L 245.766003 258.608651 
L 246.422839 257.81963 
L 247.079675 257.293616 
L 247.736511 256.504594 
L 248.393346 256.504594 
L 249.050182 255.452566 
L 249.707018 255.189559 
L 250.363854 254.663545 
L 251.020689 253.874524 
L 251.677525 253.34851 
L 252.334361 252.559488 
L 252.991197 252.296481 
L 253.648033 251.244453 
L 254.304868 250.981446 
L 254.961704 249.666411 
L 255.61854 249.140396 
L 256.275376 248.351375 
L 256.932211 247.825361 
L 258.245883 246.247319 
L 258.902719 245.721305 
L 260.21639 244.143262 
L 260.873226 242.828227 
L 261.530062 242.56522 
L 262.186897 241.513192 
L 263.500569 239.935149 
L 264.157405 238.883121 
L 265.471076 237.305079 
L 266.127912 235.990043 
L 267.441583 234.412001 
L 268.098419 233.096965 
L 268.755255 232.570951 
L 270.068926 230.466895 
L 270.725762 229.151859 
L 271.382598 228.362838 
L 272.039434 227.047803 
L 272.69627 225.995775 
L 275.323613 220.735633 
L 275.980448 219.946612 
L 276.637284 218.631577 
L 277.950956 215.738499 
L 278.607791 214.423464 
L 279.264627 212.319407 
L 279.921463 211.530386 
L 280.578299 209.42633 
L 281.89197 206.796259 
L 282.548806 205.218217 
L 283.205642 203.11416 
L 283.862477 201.799125 
L 284.519313 199.695068 
L 285.832985 196.275976 
L 287.803492 189.963807 
L 288.460328 188.385764 
L 289.117163 185.755694 
L 289.773999 183.651637 
L 291.744506 176.024432 
L 292.401342 173.920376 
L 296.999193 153.405825 
L 298.312864 146.567641 
L 299.626536 138.151415 
L 300.940207 131.050224 
L 304.881222 102.382454 
L 308.822236 63.720415 
L 310.135908 47.676984 
L 310.792743 46.098942 
L 331.154652 46.098942 
L 331.154652 46.098942 
" clip-path="url(#pcc345d114d)" style="fill: none; stroke: #ff0000; stroke-width: 1.5; stroke-linecap: square"/>
   </g>
   <g id="patch_3">
    <path d="M 58.042344 303.477656 
L 58.042344 33.842812 
" style="fill: none; stroke: #000000; stroke-width: 0.8; stroke-linejoin: miter; stroke-linecap: square"/>
   </g>
   <g id="patch_4">
    <path d="M 344.16 303.477656 
L 344.16 33.842812 
" style="fill: none; stroke: #000000; stroke-width: 0.8; stroke-linejoin: miter; stroke-linecap: square"/>
   </g>
   <g id="patch_5">
    <path d="M 58.042344 303.477656 
L 344.16 303.477656 
" style="fill: none; stroke: #000000; stroke-width: 0.8; stroke-linejoin: miter; stroke-linecap: square"/>
   </g>
   <g id="patch_6">
    <path d="M 58.042344 33.842813 
L 344.16 33.842813 
" style="fill: none; stroke: #000000; stroke-width: 0.8; stroke-linejoin: miter; stroke-linecap: square"/>
   </g>
   <g id="legend_1">
    <g id="patch_7">
     <path d="M 189.555312 71.844375 
L 337.16 71.844375 
Q 339.16 71.844375 339.16 69.844375 
L 339.16 40.842813 
Q 339.16 38.842813 337.16 38.842813 
L 189.555312 38.842813 
Q 187.555312 38.842813 187.555312 40.842813 
L 187.555312 69.844375 
Q 187.555312 71.844375 189.555312 71.844375 
z
" style="fill: #ffffff; opacity: 0.8; stroke: #cccccc; stroke-linejoin: miter"/>
    </g>
    <g id="line2d_17">
     <path d="M 191.555312 46.94125 
L 201.555312 46.94125 
L 211.555312 46.94125 
" style="fill: none; stroke: #ffa500; stroke-width: 1.5; stroke-linecap: square"/>
    </g>
    <g id="text_17">
     <!-- Gauss-Seidel Iterations -->
     <g transform="translate(219.555312 50.44125) scale(0.1 -0.1)">
      <defs>
       <path id="DejaVuSans-2a" d="M 3809 666 
L 3809 1919 
L 2778 1919 
L 2778 2438 
L 4434 2438 
L 4434 434 
Q 4069 175 3628 42 
Q 3188 -91 2688 -91 
Q 1594 -91 976 548 
Q 359 1188 359 2328 
Q 359 3472 976 4111 
Q 1594 4750 2688 4750 
Q 3144 4750 3555 4637 
Q 3966 4525 4313 4306 
L 4313 3634 
Q 3963 3931 3569 4081 
Q 3175 4231 2741 4231 
Q 1884 4231 1454 3753 
Q 1025 3275 1025 2328 
Q 1025 1384 1454 906 
Q 1884 428 2741 428 
Q 3075 428 3337 486 
Q 3600 544 3809 666 
z
" transform="scale(0.015625)"/>
       <path id="DejaVuSans-56" d="M 2834 3397 
L 2834 2853 
Q 2591 2978 2328 3040 
Q 2066 3103 1784 3103 
Q 1356 3103 1142 2972 
Q 928 2841 928 2578 
Q 928 2378 1081 2264 
Q 1234 2150 1697 2047 
L 1894 2003 
Q 2506 1872 2764 1633 
Q 3022 1394 3022 966 
Q 3022 478 2636 193 
Q 2250 -91 1575 -91 
Q 1294 -91 989 -36 
Q 684 19 347 128 
L 347 722 
Q 666 556 975 473 
Q 1284 391 1588 391 
Q 1994 391 2212 530 
Q 2431 669 2431 922 
Q 2431 1156 2273 1281 
Q 2116 1406 1581 1522 
L 1381 1569 
Q 847 1681 609 1914 
Q 372 2147 372 2553 
Q 372 3047 722 3315 
Q 1072 3584 1716 3584 
Q 2034 3584 2315 3537 
Q 2597 3491 2834 3397 
z
" transform="scale(0.015625)"/>
       <path id="DejaVuSans-10" d="M 313 2009 
L 1997 2009 
L 1997 1497 
L 313 1497 
L 313 2009 
z
" transform="scale(0.015625)"/>
       <path id="DejaVuSans-36" d="M 3425 4513 
L 3425 3897 
Q 3066 4069 2747 4153 
Q 2428 4238 2131 4238 
Q 1616 4238 1336 4038 
Q 1056 3838 1056 3469 
Q 1056 3159 1242 3001 
Q 1428 2844 1947 2747 
L 2328 2669 
Q 3034 2534 3370 2195 
Q 3706 1856 3706 1288 
Q 3706 609 3251 259 
Q 2797 -91 1919 -91 
Q 1588 -91 1214 -16 
Q 841 59 441 206 
L 441 856 
Q 825 641 1194 531 
Q 1563 422 1919 422 
Q 2459 422 2753 634 
Q 3047 847 3047 1241 
Q 3047 1584 2836 1778 
Q 2625 1972 2144 2069 
L 1759 2144 
Q 1053 2284 737 2584 
Q 422 2884 422 3419 
Q 422 4038 858 4394 
Q 1294 4750 2059 4750 
Q 2388 4750 2728 4690 
Q 3069 4631 3425 4513 
z
" transform="scale(0.015625)"/>
       <path id="DejaVuSans-47" d="M 2906 2969 
L 2906 4863 
L 3481 4863 
L 3481 0 
L 2906 0 
L 2906 525 
Q 2725 213 2448 61 
Q 2172 -91 1784 -91 
Q 1150 -91 751 415 
Q 353 922 353 1747 
Q 353 2572 751 3078 
Q 1150 3584 1784 3584 
Q 2172 3584 2448 3432 
Q 2725 3281 2906 2969 
z
M 947 1747 
Q 947 1113 1208 752 
Q 1469 391 1925 391 
Q 2381 391 2643 752 
Q 2906 1113 2906 1747 
Q 2906 2381 2643 2742 
Q 2381 3103 1925 3103 
Q 1469 3103 1208 2742 
Q 947 2381 947 1747 
z
" transform="scale(0.015625)"/>
      </defs>
      <use xlink:href="#DejaVuSans-2a"/>
      <use xlink:href="#DejaVuSans-44" transform="translate(77.484375 0)"/>
      <use xlink:href="#DejaVuSans-58" transform="translate(138.765625 0)"/>
      <use xlink:href="#DejaVuSans-56" transform="translate(202.140625 0)"/>
      <use xlink:href="#DejaVuSans-56" transform="translate(254.234375 0)"/>
      <use xlink:href="#DejaVuSans-10" transform="translate(306.328125 0)"/>
      <use xlink:href="#DejaVuSans-36" transform="translate(342.40625 0)"/>
      <use xlink:href="#DejaVuSans-48" transform="translate(405.890625 0)"/>
      <use xlink:href="#DejaVuSans-4c" transform="translate(467.421875 0)"/>
      <use xlink:href="#DejaVuSans-47" transform="translate(495.203125 0)"/>
      <use xlink:href="#DejaVuSans-48" transform="translate(558.6875 0)"/>
      <use xlink:href="#DejaVuSans-4f" transform="translate(620.21875 0)"/>
      <use xlink:href="#DejaVuSans-3" transform="translate(648 0)"/>
      <use xlink:href="#DejaVuSans-2c" transform="translate(679.78125 0)"/>
      <use xlink:href="#DejaVuSans-57" transform="translate(709.28125 0)"/>
      <use xlink:href="#DejaVuSans-48" transform="translate(748.484375 0)"/>
      <use xlink:href="#DejaVuSans-55" transform="translate(810.015625 0)"/>
      <use xlink:href="#DejaVuSans-44" transform="translate(851.125 0)"/>
      <use xlink:href="#DejaVuSans-57" transform="translate(912.40625 0)"/>
      <use xlink:href="#DejaVuSans-4c" transform="translate(951.609375 0)"/>
      <use xlink:href="#DejaVuSans-52" transform="translate(979.390625 0)"/>
      <use xlink:href="#DejaVuSans-51" transform="translate(1040.578125 0)"/>
      <use xlink:href="#DejaVuSans-56" transform="translate(1103.953125 0)"/>
     </g>
    </g>
    <g id="line2d_18">
     <path d="M 191.555312 61.942031 
L 201.555312 61.942031 
L 211.555312 61.942031 
" style="fill: none; stroke: #ff0000; stroke-width: 1.5; stroke-linecap: square"/>
    </g>
    <g id="text_18">
     <!-- SOR Iterations -->
     <g transform="translate(219.555312 65.442031) scale(0.1 -0.1)">
      <defs>
       <path id="DejaVuSans-32" d="M 2522 4238 
Q 1834 4238 1429 3725 
Q 1025 3213 1025 2328 
Q 1025 1447 1429 934 
Q 1834 422 2522 422 
Q 3209 422 3611 934 
Q 4013 1447 4013 2328 
Q 4013 3213 3611 3725 
Q 3209 4238 2522 4238 
z
M 2522 4750 
Q 3503 4750 4090 4092 
Q 4678 3434 4678 2328 
Q 4678 1225 4090 567 
Q 3503 -91 2522 -91 
Q 1538 -91 948 565 
Q 359 1222 359 2328 
Q 359 3434 948 4092 
Q 1538 4750 2522 4750 
z
" transform="scale(0.015625)"/>
       <path id="DejaVuSans-35" d="M 2841 2188 
Q 3044 2119 3236 1894 
Q 3428 1669 3622 1275 
L 4263 0 
L 3584 0 
L 2988 1197 
Q 2756 1666 2539 1819 
Q 2322 1972 1947 1972 
L 1259 1972 
L 1259 0 
L 628 0 
L 628 4666 
L 2053 4666 
Q 2853 4666 3247 4331 
Q 3641 3997 3641 3322 
Q 3641 2881 3436 2590 
Q 3231 2300 2841 2188 
z
M 1259 4147 
L 1259 2491 
L 2053 2491 
Q 2509 2491 2742 2702 
Q 2975 2913 2975 3322 
Q 2975 3731 2742 3939 
Q 2509 4147 2053 4147 
L 1259 4147 
z
" transform="scale(0.015625)"/>
      </defs>
      <use xlink:href="#DejaVuSans-36"/>
      <use xlink:href="#DejaVuSans-32" transform="translate(63.484375 0)"/>
      <use xlink:href="#DejaVuSans-35" transform="translate(142.203125 0)"/>
      <use xlink:href="#DejaVuSans-3" transform="translate(211.6875 0)"/>
      <use xlink:href="#DejaVuSans-2c" transform="translate(243.46875 0)"/>
      <use xlink:href="#DejaVuSans-57" transform="translate(272.96875 0)"/>
      <use xlink:href="#DejaVuSans-48" transform="translate(312.171875 0)"/>
      <use xlink:href="#DejaVuSans-55" transform="translate(373.703125 0)"/>
      <use xlink:href="#DejaVuSans-44" transform="translate(414.8125 0)"/>
      <use xlink:href="#DejaVuSans-57" transform="translate(476.09375 0)"/>
      <use xlink:href="#DejaVuSans-4c" transform="translate(515.296875 0)"/>
      <use xlink:href="#DejaVuSans-52" transform="translate(543.078125 0)"/>
      <use xlink:href="#DejaVuSans-51" transform="translate(604.265625 0)"/>
      <use xlink:href="#DejaVuSans-56" transform="translate(667.640625 0)"/>
     </g>
    </g>
   </g>
  </g>
  <g id="axes_2">
   <g id="patch_8">
    <path d="M 394.282344 303.477656 
L 680.4 303.477656 
L 680.4 33.842813 
L 394.282344 33.842813 
z
" style="fill: #ffffff"/>
   </g>
   <g id="FillBetweenPolyCollection_2">
    <path d="M 444.070494 254.505814 
L 444.070494 254.505814 
L 444.72733 254.505814 
L 445.384166 254.505814 
L 446.041001 254.505814 
L 446.697837 254.505814 
L 447.354673 254.505814 
L 448.011509 254.505814 
L 448.668345 254.505814 
L 449.32518 254.505814 
L 449.982016 254.505814 
L 450.638852 254.505814 
L 451.295688 254.505814 
L 451.952523 254.505814 
L 452.609359 254.505814 
L 453.266195 254.505814 
L 453.923031 254.505814 
L 454.579866 254.505814 
L 455.236702 254.505814 
L 455.893538 254.505814 
L 456.550374 254.505814 
L 457.207209 254.505814 
L 457.864045 254.505814 
L 458.520881 254.505814 
L 459.177717 254.505814 
L 459.834552 254.505814 
L 460.491388 254.505814 
L 461.148224 254.505814 
L 461.80506 254.505814 
L 462.461895 254.505814 
L 463.118731 254.505814 
L 463.775567 254.505814 
L 464.432403 254.505814 
L 465.089238 254.505814 
L 465.746074 254.505814 
L 466.40291 254.505814 
L 467.059746 254.505814 
L 467.716582 254.505814 
L 468.373417 254.505814 
L 469.030253 254.505814 
L 469.687089 254.505814 
L 470.343925 254.505814 
L 471.00076 254.505814 
L 471.657596 254.505814 
L 472.314432 254.505814 
L 472.971268 254.505814 
L 473.628103 254.505814 
L 474.284939 254.505814 
L 474.941775 254.505814 
L 475.598611 254.505814 
L 476.255446 254.505814 
L 476.912282 254.505814 
L 477.569118 254.505814 
L 478.225954 254.505814 
L 478.882789 254.505814 
L 479.539625 254.505814 
L 480.196461 254.505814 
L 480.853297 254.505814 
L 481.510132 254.505814 
L 482.166968 254.505814 
L 482.823804 254.505814 
L 483.48064 254.505814 
L 484.137475 254.505814 
L 484.794311 254.505814 
L 485.451147 254.505814 
L 486.107983 254.505814 
L 486.764818 254.505814 
L 487.421654 254.505814 
L 488.07849 254.505814 
L 488.735326 254.505814 
L 489.392162 254.505814 
L 490.048997 254.505814 
L 490.705833 254.505814 
L 491.362669 254.505814 
L 492.019505 254.505814 
L 492.67634 254.505814 
L 493.333176 254.505814 
L 493.990012 254.505814 
L 494.646848 254.505814 
L 495.303683 254.505814 
L 495.960519 254.505814 
L 496.617355 254.505814 
L 497.274191 254.505814 
L 497.931026 254.505814 
L 498.587862 254.505814 
L 499.244698 254.505814 
L 499.901534 254.505814 
L 500.558369 254.505814 
L 501.215205 254.505814 
L 501.872041 254.505814 
L 502.528877 254.505814 
L 503.185712 254.505814 
L 503.842548 254.505814 
L 504.499384 254.505814 
L 505.15622 254.505814 
L 505.813055 254.505814 
L 506.469891 254.505814 
L 507.126727 254.505814 
L 507.783563 254.505814 
L 508.440399 254.505814 
L 509.097234 254.505814 
L 509.75407 254.505814 
L 510.410906 254.505814 
L 511.067742 254.505814 
L 511.724577 254.505814 
L 512.381413 254.505814 
L 513.038249 254.505814 
L 513.695085 254.505814 
L 514.35192 254.505814 
L 515.008756 254.505814 
L 515.665592 254.505814 
L 516.322428 254.505814 
L 516.979263 254.505814 
L 517.636099 254.505814 
L 518.292935 254.505814 
L 518.949771 254.505814 
L 519.606606 254.505814 
L 520.263442 254.505814 
L 520.920278 254.505814 
L 521.577114 254.505814 
L 522.233949 254.505814 
L 522.890785 254.505814 
L 523.547621 254.505814 
L 524.204457 254.505814 
L 524.861292 254.505814 
L 525.518128 254.505814 
L 526.174964 254.505814 
L 526.8318 254.505814 
L 527.488636 254.505814 
L 528.145471 254.505814 
L 528.802307 254.505814 
L 529.459143 254.505814 
L 530.115979 254.505814 
L 530.772814 254.505814 
L 531.42965 254.505814 
L 532.086486 254.505814 
L 532.743322 254.505814 
L 533.400157 254.505814 
L 534.056993 254.505814 
L 534.713829 254.505814 
L 535.370665 254.505814 
L 536.0275 254.505814 
L 536.684336 254.505814 
L 537.341172 254.505814 
L 537.341172 254.505814 
L 537.341172 254.505814 
L 536.684336 254.505814 
L 536.0275 256.302865 
L 535.370665 256.302865 
L 534.713829 256.302865 
L 534.056993 257.214779 
L 533.400157 258.135859 
L 532.743322 259.06629 
L 532.086486 260.006264 
L 531.42965 260.006264 
L 530.772814 260.955979 
L 530.115979 260.955979 
L 529.459143 261.915639 
L 528.802307 262.885454 
L 528.145471 263.865641 
L 527.488636 264.856425 
L 526.8318 264.856425 
L 526.174964 264.856425 
L 525.518128 265.858038 
L 524.861292 266.870719 
L 524.204457 267.894715 
L 523.547621 268.930281 
L 522.890785 268.930281 
L 522.233949 268.930281 
L 521.577114 268.930281 
L 520.920278 271.037194 
L 520.263442 271.037194 
L 519.606606 272.109097 
L 518.949771 273.193685 
L 518.292935 273.193685 
L 517.636099 273.193685 
L 516.979263 273.193685 
L 516.322428 274.291263 
L 515.665592 275.402145 
L 515.008756 276.526658 
L 514.35192 276.526658 
L 513.695085 277.665141 
L 513.038249 277.665141 
L 512.381413 277.665141 
L 511.724577 277.665141 
L 511.067742 278.817944 
L 510.410906 279.985433 
L 509.75407 279.985433 
L 509.097234 281.167987 
L 508.440399 281.167987 
L 507.783563 281.167987 
L 507.126727 281.167987 
L 506.469891 281.167987 
L 505.813055 282.366 
L 505.15622 283.579881 
L 504.499384 283.579881 
L 503.842548 284.810056 
L 503.185712 284.810056 
L 502.528877 284.810056 
L 501.872041 284.810056 
L 501.215205 284.810056 
L 500.558369 284.810056 
L 499.901534 286.056968 
L 499.244698 286.056968 
L 498.587862 287.32108 
L 497.931026 287.32108 
L 497.274191 288.602873 
L 496.617355 288.602873 
L 495.960519 288.602873 
L 495.303683 288.602873 
L 494.646848 288.602873 
L 493.990012 288.602873 
L 493.333176 288.602873 
L 492.67634 289.902847 
L 492.019505 289.902847 
L 491.362669 289.902847 
L 490.705833 289.902847 
L 490.048997 291.221527 
L 489.392162 291.221527 
L 488.735326 291.221527 
L 488.07849 289.902847 
L 487.421654 289.902847 
L 486.764818 289.902847 
L 486.107983 291.221527 
L 485.451147 291.221527 
L 484.794311 291.221527 
L 484.137475 291.221527 
L 483.48064 291.221527 
L 482.823804 291.221527 
L 482.166968 291.221527 
L 481.510132 291.221527 
L 480.853297 291.221527 
L 480.196461 289.902847 
L 479.539625 289.902847 
L 478.882789 289.902847 
L 478.225954 291.221527 
L 477.569118 289.902847 
L 476.912282 289.902847 
L 476.255446 289.902847 
L 475.598611 289.902847 
L 474.941775 289.902847 
L 474.284939 289.902847 
L 473.628103 289.902847 
L 472.971268 288.602873 
L 472.314432 288.602873 
L 471.657596 287.32108 
L 471.00076 287.32108 
L 470.343925 287.32108 
L 469.687089 287.32108 
L 469.030253 287.32108 
L 468.373417 286.056968 
L 467.716582 286.056968 
L 467.059746 286.056968 
L 466.40291 286.056968 
L 465.746074 284.810056 
L 465.089238 284.810056 
L 464.432403 284.810056 
L 463.775567 283.579881 
L 463.118731 282.366 
L 462.461895 281.167987 
L 461.80506 281.167987 
L 461.148224 279.985433 
L 460.491388 278.817944 
L 459.834552 278.817944 
L 459.177717 278.817944 
L 458.520881 277.665141 
L 457.864045 276.526658 
L 457.207209 276.526658 
L 456.550374 275.402145 
L 455.893538 275.402145 
L 455.236702 274.291263 
L 454.579866 273.193685 
L 453.923031 272.109097 
L 453.266195 271.037194 
L 452.609359 269.977683 
L 451.952523 268.930281 
L 451.295688 267.894715 
L 450.638852 265.858038 
L 449.982016 264.856425 
L 449.32518 263.865641 
L 448.668345 262.885454 
L 448.011509 261.915639 
L 447.354673 260.955979 
L 446.697837 260.006264 
L 446.041001 258.135859 
L 445.384166 257.214779 
L 444.72733 255.399935 
L 444.070494 254.505814 
z
" clip-path="url(#pf4840d37a3)" style="fill: url(#hae615dec67); stroke: #ffa500"/>
   </g>
   <g id="matplotlib.axis_3">
    <g id="xtick_10">
     <g id="line2d_19">
      <g>
       <use xlink:href="#m8427e886d3" x="405.97402" y="303.477656" style="stroke: #000000; stroke-width: 0.8"/>
      </g>
     </g>
     <g id="text_19">
      <!-- 0.00 -->
      <g transform="translate(394.841208 318.075312) scale(0.1 -0.1)">
       <use xlink:href="#DejaVuSans-13"/>
       <use xlink:href="#DejaVuSans-11" transform="translate(63.625 0)"/>
       <use xlink:href="#DejaVuSans-13" transform="translate(95.40625 0)"/>
       <use xlink:href="#DejaVuSans-13" transform="translate(159.03125 0)"/>
      </g>
     </g>
    </g>
    <g id="xtick_11">
     <g id="line2d_20">
      <g>
       <use xlink:href="#m8427e886d3" x="438.815808" y="303.477656" style="stroke: #000000; stroke-width: 0.8"/>
      </g>
     </g>
     <g id="text_20">
      <!-- 0.25 -->
      <g transform="translate(427.682996 318.075312) scale(0.1 -0.1)">
       <use xlink:href="#DejaVuSans-13"/>
       <use xlink:href="#DejaVuSans-11" transform="translate(63.625 0)"/>
       <use xlink:href="#DejaVuSans-15" transform="translate(95.40625 0)"/>
       <use xlink:href="#DejaVuSans-18" transform="translate(159.03125 0)"/>
      </g>
     </g>
    </g>
    <g id="xtick_12">
     <g id="line2d_21">
      <g>
       <use xlink:href="#m8427e886d3" x="471.657596" y="303.477656" style="stroke: #000000; stroke-width: 0.8"/>
      </g>
     </g>
     <g id="text_21">
      <!-- 0.50 -->
      <g transform="translate(460.524784 318.075312) scale(0.1 -0.1)">
       <use xlink:href="#DejaVuSans-13"/>
       <use xlink:href="#DejaVuSans-11" transform="translate(63.625 0)"/>
       <use xlink:href="#DejaVuSans-18" transform="translate(95.40625 0)"/>
       <use xlink:href="#DejaVuSans-13" transform="translate(159.03125 0)"/>
      </g>
     </g>
    </g>
    <g id="xtick_13">
     <g id="line2d_22">
      <g>
       <use xlink:href="#m8427e886d3" x="504.499384" y="303.477656" style="stroke: #000000; stroke-width: 0.8"/>
      </g>
     </g>
     <g id="text_22">
      <!-- 0.75 -->
      <g transform="translate(493.366571 318.075312) scale(0.1 -0.1)">
       <use xlink:href="#DejaVuSans-13"/>
       <use xlink:href="#DejaVuSans-11" transform="translate(63.625 0)"/>
       <use xlink:href="#DejaVuSans-1a" transform="translate(95.40625 0)"/>
       <use xlink:href="#DejaVuSans-18" transform="translate(159.03125 0)"/>
      </g>
     </g>
    </g>
    <g id="xtick_14">
     <g id="line2d_23">
      <g>
       <use xlink:href="#m8427e886d3" x="537.341172" y="303.477656" style="stroke: #000000; stroke-width: 0.8"/>
      </g>
     </g>
     <g id="text_23">
      <!-- 1.00 -->
      <g transform="translate(526.208359 318.075312) scale(0.1 -0.1)">
       <use xlink:href="#DejaVuSans-14"/>
       <use xlink:href="#DejaVuSans-11" transform="translate(63.625 0)"/>
       <use xlink:href="#DejaVuSans-13" transform="translate(95.40625 0)"/>
       <use xlink:href="#DejaVuSans-13" transform="translate(159.03125 0)"/>
      </g>
     </g>
    </g>
    <g id="xtick_15">
     <g id="line2d_24">
      <g>
       <use xlink:href="#m8427e886d3" x="570.18296" y="303.477656" style="stroke: #000000; stroke-width: 0.8"/>
      </g>
     </g>
     <g id="text_24">
      <!-- 1.25 -->
      <g transform="translate(559.050147 318.075312) scale(0.1 -0.1)">
       <use xlink:href="#DejaVuSans-14"/>
       <use xlink:href="#DejaVuSans-11" transform="translate(63.625 0)"/>
       <use xlink:href="#DejaVuSans-15" transform="translate(95.40625 0)"/>
       <use xlink:href="#DejaVuSans-18" transform="translate(159.03125 0)"/>
      </g>
     </g>
    </g>
    <g id="xtick_16">
     <g id="line2d_25">
      <g>
       <use xlink:href="#m8427e886d3" x="603.024748" y="303.477656" style="stroke: #000000; stroke-width: 0.8"/>
      </g>
     </g>
     <g id="text_25">
      <!-- 1.50 -->
      <g transform="translate(591.891935 318.075312) scale(0.1 -0.1)">
       <use xlink:href="#DejaVuSans-14"/>
       <use xlink:href="#DejaVuSans-11" transform="translate(63.625 0)"/>
       <use xlink:href="#DejaVuSans-18" transform="translate(95.40625 0)"/>
       <use xlink:href="#DejaVuSans-13" transform="translate(159.03125 0)"/>
      </g>
     </g>
    </g>
    <g id="xtick_17">
     <g id="line2d_26">
      <g>
       <use xlink:href="#m8427e886d3" x="635.866536" y="303.477656" style="stroke: #000000; stroke-width: 0.8"/>
      </g>
     </g>
     <g id="text_26">
      <!-- 1.75 -->
      <g transform="translate(624.733723 318.075312) scale(0.1 -0.1)">
       <use xlink:href="#DejaVuSans-14"/>
       <use xlink:href="#DejaVuSans-11" transform="translate(63.625 0)"/>
       <use xlink:href="#DejaVuSans-1a" transform="translate(95.40625 0)"/>
       <use xlink:href="#DejaVuSans-18" transform="translate(159.03125 0)"/>
      </g>
     </g>
    </g>
    <g id="xtick_18">
     <g id="line2d_27">
      <g>
       <use xlink:href="#m8427e886d3" x="668.708324" y="303.477656" style="stroke: #000000; stroke-width: 0.8"/>
      </g>
     </g>
     <g id="text_27">
      <!-- 2.00 -->
      <g transform="translate(657.575511 318.075312) scale(0.1 -0.1)">
       <use xlink:href="#DejaVuSans-15"/>
       <use xlink:href="#DejaVuSans-11" transform="translate(63.625 0)"/>
       <use xlink:href="#DejaVuSans-13" transform="translate(95.40625 0)"/>
       <use xlink:href="#DejaVuSans-13" transform="translate(159.03125 0)"/>
      </g>
     </g>
    </g>
    <g id="text_28">
     <!-- $\omega$ value -->
     <g transform="translate(517.891172 332.077656) scale(0.1 -0.1)">
      <use xlink:href="#DejaVuSans-Oblique-35d" transform="translate(0 0.015625)"/>
      <use xlink:href="#DejaVuSans-3" transform="translate(83.740234 0.015625)"/>
      <use xlink:href="#DejaVuSans-59" transform="translate(115.527344 0.015625)"/>
      <use xlink:href="#DejaVuSans-44" transform="translate(174.707031 0.015625)"/>
      <use xlink:href="#DejaVuSans-4f" transform="translate(235.986328 0.015625)"/>
      <use xlink:href="#DejaVuSans-58" transform="translate(263.769531 0.015625)"/>
      <use xlink:href="#DejaVuSans-48" transform="translate(327.148438 0.015625)"/>
     </g>
    </g>
   </g>
   <g id="matplotlib.axis_4">
    <g id="ytick_6">
     <g id="line2d_28">
      <g>
       <use xlink:href="#mbd99ca5a98" x="394.282344" y="257.214779" style="stroke: #000000; stroke-width: 0.8"/>
      </g>
     </g>
     <g id="text_29">
      <!-- $\mathdefault{10^{2}}$ -->
      <g transform="translate(369.682344 261.914779) scale(0.1 -0.1)">
       <use xlink:href="#DejaVuSans-14" transform="translate(0 0.746875)"/>
       <use xlink:href="#DejaVuSans-13" transform="translate(63.623047 0.746875)"/>
       <use xlink:href="#DejaVuSans-15" transform="translate(128.203125 42.046875) scale(0.7)"/>
      </g>
     </g>
    </g>
    <g id="ytick_7">
     <g id="line2d_29">
      <g>
       <use xlink:href="#mbd99ca5a98" x="394.282344" y="46.190543" style="stroke: #000000; stroke-width: 0.8"/>
      </g>
     </g>
     <g id="text_30">
      <!-- $\mathdefault{10^{3}}$ -->
      <g transform="translate(369.682344 50.890543) scale(0.1 -0.1)">
       <defs>
        <path id="DejaVuSans-16" d="M 2597 2516 
Q 3050 2419 3304 2112 
Q 3559 1806 3559 1356 
Q 3559 666 3084 287 
Q 2609 -91 1734 -91 
Q 1441 -91 1130 -33 
Q 819 25 488 141 
L 488 750 
Q 750 597 1062 519 
Q 1375 441 1716 441 
Q 2309 441 2620 675 
Q 2931 909 2931 1356 
Q 2931 1769 2642 2001 
Q 2353 2234 1838 2234 
L 1294 2234 
L 1294 2753 
L 1863 2753 
Q 2328 2753 2575 2939 
Q 2822 3125 2822 3475 
Q 2822 3834 2567 4026 
Q 2313 4219 1838 4219 
Q 1578 4219 1281 4162 
Q 984 4106 628 3988 
L 628 4550 
Q 988 4650 1302 4700 
Q 1616 4750 1894 4750 
Q 2613 4750 3031 4423 
Q 3450 4097 3450 3541 
Q 3450 3153 3228 2886 
Q 3006 2619 2597 2516 
z
" transform="scale(0.015625)"/>
       </defs>
       <use xlink:href="#DejaVuSans-14" transform="translate(0 0.746875)"/>
       <use xlink:href="#DejaVuSans-13" transform="translate(63.623047 0.746875)"/>
       <use xlink:href="#DejaVuSans-16" transform="translate(128.203125 42.046875) scale(0.7)"/>
      </g>
     </g>
    </g>
    <g id="ytick_8">
     <g id="line2d_30">
      <defs>
       <path id="mf983d231c3" d="M 0 0 
L -2 0 
" style="stroke: #000000; stroke-width: 0.6"/>
      </defs>
      <g>
       <use xlink:href="#mf983d231c3" x="394.282344" y="289.902847" style="stroke: #000000; stroke-width: 0.6"/>
      </g>
     </g>
    </g>
    <g id="ytick_9">
     <g id="line2d_31">
      <g>
       <use xlink:href="#mf983d231c3" x="394.282344" y="277.665141" style="stroke: #000000; stroke-width: 0.6"/>
      </g>
     </g>
    </g>
    <g id="ytick_10">
     <g id="line2d_32">
      <g>
       <use xlink:href="#mf983d231c3" x="394.282344" y="266.870719" style="stroke: #000000; stroke-width: 0.6"/>
      </g>
     </g>
    </g>
    <g id="ytick_11">
     <g id="line2d_33">
      <g>
       <use xlink:href="#mf983d231c3" x="394.282344" y="193.690154" style="stroke: #000000; stroke-width: 0.6"/>
      </g>
     </g>
    </g>
    <g id="ytick_12">
     <g id="line2d_34">
      <g>
       <use xlink:href="#mf983d231c3" x="394.282344" y="156.530631" style="stroke: #000000; stroke-width: 0.6"/>
      </g>
     </g>
    </g>
    <g id="ytick_13">
     <g id="line2d_35">
      <g>
       <use xlink:href="#mf983d231c3" x="394.282344" y="130.165529" style="stroke: #000000; stroke-width: 0.6"/>
      </g>
     </g>
    </g>
    <g id="ytick_14">
     <g id="line2d_36">
      <g>
       <use xlink:href="#mf983d231c3" x="394.282344" y="109.715168" style="stroke: #000000; stroke-width: 0.6"/>
      </g>
     </g>
    </g>
    <g id="ytick_15">
     <g id="line2d_37">
      <g>
       <use xlink:href="#mf983d231c3" x="394.282344" y="93.006006" style="stroke: #000000; stroke-width: 0.6"/>
      </g>
     </g>
    </g>
    <g id="ytick_16">
     <g id="line2d_38">
      <g>
       <use xlink:href="#mf983d231c3" x="394.282344" y="78.878611" style="stroke: #000000; stroke-width: 0.6"/>
      </g>
     </g>
    </g>
    <g id="ytick_17">
     <g id="line2d_39">
      <g>
       <use xlink:href="#mf983d231c3" x="394.282344" y="66.640904" style="stroke: #000000; stroke-width: 0.6"/>
      </g>
     </g>
    </g>
    <g id="ytick_18">
     <g id="line2d_40">
      <g>
       <use xlink:href="#mf983d231c3" x="394.282344" y="55.846482" style="stroke: #000000; stroke-width: 0.6"/>
      </g>
     </g>
    </g>
    <g id="text_31">
     <!-- Iteration Count (log scale) -->
     <g transform="translate(363.28 233.892266) rotate(-90) scale(0.1 -0.1)">
      <defs>
       <path id="DejaVuSans-b" d="M 1984 4856 
Q 1566 4138 1362 3434 
Q 1159 2731 1159 2009 
Q 1159 1288 1364 580 
Q 1569 -128 1984 -844 
L 1484 -844 
Q 1016 -109 783 600 
Q 550 1309 550 2009 
Q 550 2706 781 3412 
Q 1013 4119 1484 4856 
L 1984 4856 
z
" transform="scale(0.015625)"/>
       <path id="DejaVuSans-4a" d="M 2906 1791 
Q 2906 2416 2648 2759 
Q 2391 3103 1925 3103 
Q 1463 3103 1205 2759 
Q 947 2416 947 1791 
Q 947 1169 1205 825 
Q 1463 481 1925 481 
Q 2391 481 2648 825 
Q 2906 1169 2906 1791 
z
M 3481 434 
Q 3481 -459 3084 -895 
Q 2688 -1331 1869 -1331 
Q 1566 -1331 1297 -1286 
Q 1028 -1241 775 -1147 
L 775 -588 
Q 1028 -725 1275 -790 
Q 1522 -856 1778 -856 
Q 2344 -856 2625 -561 
Q 2906 -266 2906 331 
L 2906 616 
Q 2728 306 2450 153 
Q 2172 0 1784 0 
Q 1141 0 747 490 
Q 353 981 353 1791 
Q 353 2603 747 3093 
Q 1141 3584 1784 3584 
Q 2172 3584 2450 3431 
Q 2728 3278 2906 2969 
L 2906 3500 
L 3481 3500 
L 3481 434 
z
" transform="scale(0.015625)"/>
       <path id="DejaVuSans-46" d="M 3122 3366 
L 3122 2828 
Q 2878 2963 2633 3030 
Q 2388 3097 2138 3097 
Q 1578 3097 1268 2742 
Q 959 2388 959 1747 
Q 959 1106 1268 751 
Q 1578 397 2138 397 
Q 2388 397 2633 464 
Q 2878 531 3122 666 
L 3122 134 
Q 2881 22 2623 -34 
Q 2366 -91 2075 -91 
Q 1284 -91 818 406 
Q 353 903 353 1747 
Q 353 2603 823 3093 
Q 1294 3584 2113 3584 
Q 2378 3584 2631 3529 
Q 2884 3475 3122 3366 
z
" transform="scale(0.015625)"/>
       <path id="DejaVuSans-c" d="M 513 4856 
L 1013 4856 
Q 1481 4119 1714 3412 
Q 1947 2706 1947 2009 
Q 1947 1309 1714 600 
Q 1481 -109 1013 -844 
L 513 -844 
Q 928 -128 1133 580 
Q 1338 1288 1338 2009 
Q 1338 2731 1133 3434 
Q 928 4138 513 4856 
z
" transform="scale(0.015625)"/>
      </defs>
      <use xlink:href="#DejaVuSans-2c"/>
      <use xlink:href="#DejaVuSans-57" transform="translate(29.5 0)"/>
      <use xlink:href="#DejaVuSans-48" transform="translate(68.703125 0)"/>
      <use xlink:href="#DejaVuSans-55" transform="translate(130.234375 0)"/>
      <use xlink:href="#DejaVuSans-44" transform="translate(171.34375 0)"/>
      <use xlink:href="#DejaVuSans-57" transform="translate(232.625 0)"/>
      <use xlink:href="#DejaVuSans-4c" transform="translate(271.828125 0)"/>
      <use xlink:href="#DejaVuSans-52" transform="translate(299.609375 0)"/>
      <use xlink:href="#DejaVuSans-51" transform="translate(360.796875 0)"/>
      <use xlink:href="#DejaVuSans-3" transform="translate(424.171875 0)"/>
      <use xlink:href="#DejaVuSans-26" transform="translate(455.953125 0)"/>
      <use xlink:href="#DejaVuSans-52" transform="translate(525.78125 0)"/>
      <use xlink:href="#DejaVuSans-58" transform="translate(586.96875 0)"/>
      <use xlink:href="#DejaVuSans-51" transform="translate(650.34375 0)"/>
      <use xlink:href="#DejaVuSans-57" transform="translate(713.71875 0)"/>
      <use xlink:href="#DejaVuSans-3" transform="translate(752.921875 0)"/>
      <use xlink:href="#DejaVuSans-b" transform="translate(784.703125 0)"/>
      <use xlink:href="#DejaVuSans-4f" transform="translate(823.71875 0)"/>
      <use xlink:href="#DejaVuSans-52" transform="translate(851.5 0)"/>
      <use xlink:href="#DejaVuSans-4a" transform="translate(912.6875 0)"/>
      <use xlink:href="#DejaVuSans-3" transform="translate(976.171875 0)"/>
      <use xlink:href="#DejaVuSans-56" transform="translate(1007.953125 0)"/>
      <use xlink:href="#DejaVuSans-46" transform="translate(1060.046875 0)"/>
      <use xlink:href="#DejaVuSans-44" transform="translate(1115.03125 0)"/>
      <use xlink:href="#DejaVuSans-4f" transform="translate(1176.3125 0)"/>
      <use xlink:href="#DejaVuSans-48" transform="translate(1204.09375 0)"/>
      <use xlink:href="#DejaVuSans-c" transform="translate(1265.625 0)"/>
     </g>
    </g>
   </g>
   <g id="line2d_41">
    <path d="M 407.287692 254.505814 
L 667.394652 254.505814 
L 667.394652 254.505814 
" clip-path="url(#pf4840d37a3)" style="fill: none; stroke: #ffa500; stroke-width: 1.5; stroke-linecap: square"/>
   </g>
   <g id="line2d_42">
    <path d="M 407.287692 46.098942 
L 409.258199 46.098942 
L 409.915035 54.532167 
L 411.228706 78.226318 
L 412.542378 96.906452 
L 413.856049 112.317885 
L 415.826557 131.318333 
L 417.797064 147.242013 
L 419.767571 160.910486 
L 421.738078 173.239793 
L 423.708586 184.125907 
L 425.679093 193.690154 
L 430.276943 213.002033 
L 434.874794 229.034833 
L 435.531629 231.770758 
L 436.845301 236.034162 
L 438.815808 240.505617 
L 439.472644 242.82591 
L 442.099987 249.316881 
L 442.756823 251.874628 
L 443.413658 252.743324 
L 444.070494 254.505814 
L 444.72733 255.399935 
L 445.384166 257.214779 
L 446.041001 258.135859 
L 446.697837 260.006264 
L 450.638852 265.858038 
L 451.295688 267.894715 
L 455.236702 274.291263 
L 455.893538 275.402145 
L 456.550374 275.402145 
L 457.207209 276.526658 
L 457.864045 276.526658 
L 459.177717 278.817944 
L 460.491388 278.817944 
L 461.80506 281.167987 
L 462.461895 281.167987 
L 464.432403 284.810056 
L 465.746074 284.810056 
L 466.40291 286.056968 
L 468.373417 286.056968 
L 469.030253 287.32108 
L 471.657596 287.32108 
L 472.314432 288.602873 
L 472.971268 288.602873 
L 473.628103 289.902847 
L 477.569118 289.902847 
L 478.225954 291.221527 
L 478.882789 289.902847 
L 480.196461 289.902847 
L 480.853297 291.221527 
L 486.107983 291.221527 
L 486.764818 289.902847 
L 488.07849 289.902847 
L 488.735326 291.221527 
L 490.048997 291.221527 
L 490.705833 289.902847 
L 492.67634 289.902847 
L 493.333176 288.602873 
L 497.274191 288.602873 
L 497.931026 287.32108 
L 498.587862 287.32108 
L 499.244698 286.056968 
L 499.901534 286.056968 
L 500.558369 284.810056 
L 503.842548 284.810056 
L 504.499384 283.579881 
L 505.15622 283.579881 
L 506.469891 281.167987 
L 509.097234 281.167987 
L 509.75407 279.985433 
L 510.410906 279.985433 
L 511.724577 277.665141 
L 513.695085 277.665141 
L 514.35192 276.526658 
L 515.008756 276.526658 
L 516.979263 273.193685 
L 518.949771 273.193685 
L 520.263442 271.037194 
L 520.920278 271.037194 
L 521.577114 268.930281 
L 523.547621 268.930281 
L 526.174964 264.856425 
L 527.488636 264.856425 
L 530.115979 260.955979 
L 530.772814 260.955979 
L 531.42965 260.006264 
L 532.086486 260.006264 
L 534.713829 256.302865 
L 536.0275 256.302865 
L 536.684336 254.505814 
L 537.341172 254.505814 
L 537.998008 252.743324 
L 538.654843 252.743324 
L 539.311679 251.874628 
L 539.968515 251.874628 
L 540.625351 250.161557 
L 541.282186 250.161557 
L 541.939022 248.47992 
L 542.595858 248.47992 
L 544.566365 246.013941 
L 545.223201 244.406064 
L 545.880037 244.406064 
L 547.850544 242.045934 
L 548.50738 240.505617 
L 549.164216 240.505617 
L 550.477887 238.990762 
L 551.134723 237.50054 
L 551.791559 236.764418 
L 552.448394 236.764418 
L 553.762066 235.309678 
L 554.418902 233.87767 
L 555.075737 233.16997 
L 555.732573 233.16997 
L 557.046245 230.392586 
L 557.70308 229.711195 
L 558.359916 229.711195 
L 559.673588 227.03519 
L 560.330423 227.03519 
L 560.987259 226.378222 
L 562.300931 223.796455 
L 562.957766 223.16222 
L 563.614602 223.16222 
L 564.928274 220.668279 
L 565.585109 220.055256 
L 566.898781 217.643362 
L 567.555617 217.050178 
L 568.212453 217.050178 
L 568.869288 214.715105 
L 569.526124 214.140516 
L 570.18296 214.140516 
L 570.839796 213.002033 
L 571.496631 211.320396 
L 572.153467 211.320396 
L 572.810303 210.216206 
L 573.467139 208.584472 
L 574.123974 208.584472 
L 574.78081 207.512569 
L 575.437646 205.927861 
L 576.751317 204.88641 
L 577.408153 203.346094 
L 578.064989 202.838355 
L 580.035496 199.849612 
L 580.692332 198.391013 
L 581.349168 197.909928 
L 582.006003 196.955266 
L 582.662839 195.541665 
L 583.319675 194.611234 
L 583.976511 193.233063 
L 584.633346 193.233063 
L 585.290182 191.427159 
L 585.947018 190.981189 
L 586.603854 190.095707 
L 587.260689 188.783322 
L 587.917525 187.918724 
L 588.574361 186.636932 
L 589.231197 186.213621 
L 589.888033 184.539663 
L 590.544868 184.125907 
L 591.201704 182.084695 
L 591.85854 181.280771 
L 592.515376 180.087956 
L 593.172211 179.301285 
L 594.485883 176.980992 
L 595.142719 176.220435 
L 596.45639 173.975914 
L 597.113226 172.146579 
L 597.770062 171.785053 
L 598.426897 170.353045 
L 599.740569 168.246132 
L 600.397405 166.867961 
L 601.711076 164.838801 
L 602.367912 163.181492 
L 603.681583 161.23149 
L 604.338419 159.637595 
L 604.995255 159.007718 
L 606.308926 156.530631 
L 606.965762 155.015775 
L 607.622598 154.118737 
L 608.279434 152.642914 
L 608.93627 151.479131 
L 611.563613 145.872082 
L 612.220448 145.059847 
L 614.847791 139.567248 
L 615.504627 137.558473 
L 616.161463 136.816391 
L 616.818299 134.866388 
L 618.788806 131.086609 
L 619.445642 129.253615 
L 620.102477 128.126335 
L 620.759313 126.351042 
L 622.072985 123.537582 
L 624.043492 118.56007 
L 624.700328 117.356814 
L 625.357163 115.385842 
L 626.013999 113.839026 
L 627.984506 108.441013 
L 628.641342 107.006202 
L 630.61185 101.481567 
L 633.896028 92.094091 
L 634.552864 90.148864 
L 635.866536 85.529472 
L 637.180207 81.805168 
L 639.150714 74.907274 
L 639.80755 72.800362 
L 645.719072 49.645793 
L 646.375908 46.649925 
L 647.032743 46.098942 
L 667.394652 46.098942 
L 667.394652 46.098942 
" clip-path="url(#pf4840d37a3)" style="fill: none; stroke: #ff0000; stroke-width: 1.5; stroke-linecap: square"/>
   </g>
   <g id="patch_9">
    <path d="M 394.282344 303.477656 
L 394.282344 33.842813 
" style="fill: none; stroke: #000000; stroke-width: 0.8; stroke-linejoin: miter; stroke-linecap: square"/>
   </g>
   <g id="patch_10">
    <path d="M 680.4 303.477656 
L 680.4 33.842813 
" style="fill: none; stroke: #000000; stroke-width: 0.8; stroke-linejoin: miter; stroke-linecap: square"/>
   </g>
   <g id="patch_11">
    <path d="M 394.282344 303.477656 
L 680.4 303.477656 
" style="fill: none; stroke: #000000; stroke-width: 0.8; stroke-linejoin: miter; stroke-linecap: square"/>
   </g>
   <g id="patch_12">
    <path d="M 394.282344 33.842813 
L 680.4 33.842813 
" style="fill: none; stroke: #000000; stroke-width: 0.8; stroke-linejoin: miter; stroke-linecap: square"/>
   </g>
   <g id="legend_2">
    <g id="patch_13">
     <path d="M 525.795312 71.844375 
L 673.4 71.844375 
Q 675.4 71.844375 675.4 69.844375 
L 675.4 40.842813 
Q 675.4 38.842813 673.4 38.842813 
L 525.795312 38.842813 
Q 523.795312 38.842813 523.795312 40.842813 
L 523.795312 69.844375 
Q 523.795312 71.844375 525.795312 71.844375 
z
" style="fill: #ffffff; opacity: 0.8; stroke: #cccccc; stroke-linejoin: miter"/>
    </g>
    <g id="line2d_43">
     <path d="M 527.795312 46.94125 
L 537.795312 46.94125 
L 547.795312 46.94125 
" style="fill: none; stroke: #ffa500; stroke-width: 1.5; stroke-linecap: square"/>
    </g>
    <g id="text_32">
     <!-- Gauss-Seidel Iterations -->
     <g transform="translate(555.795312 50.44125) scale(0.1 -0.1)">
      <use xlink:href="#DejaVuSans-2a"/>
      <use xlink:href="#DejaVuSans-44" transform="translate(77.484375 0)"/>
      <use xlink:href="#DejaVuSans-58" transform="translate(138.765625 0)"/>
      <use xlink:href="#DejaVuSans-56" transform="translate(202.140625 0)"/>
      <use xlink:href="#DejaVuSans-56" transform="translate(254.234375 0)"/>
      <use xlink:href="#DejaVuSans-10" transform="translate(306.328125 0)"/>
      <use xlink:href="#DejaVuSans-36" transform="translate(342.40625 0)"/>
      <use xlink:href="#DejaVuSans-48" transform="translate(405.890625 0)"/>
      <use xlink:href="#DejaVuSans-4c" transform="translate(467.421875 0)"/>
      <use xlink:href="#DejaVuSans-47" transform="translate(495.203125 0)"/>
      <use xlink:href="#DejaVuSans-48" transform="translate(558.6875 0)"/>
      <use xlink:href="#DejaVuSans-4f" transform="translate(620.21875 0)"/>
      <use xlink:href="#DejaVuSans-3" transform="translate(648 0)"/>
      <use xlink:href="#DejaVuSans-2c" transform="translate(679.78125 0)"/>
      <use xlink:href="#DejaVuSans-57" transform="translate(709.28125 0)"/>
      <use xlink:href="#DejaVuSans-48" transform="translate(748.484375 0)"/>
      <use xlink:href="#DejaVuSans-55" transform="translate(810.015625 0)"/>
      <use xlink:href="#DejaVuSans-44" transform="translate(851.125 0)"/>
      <use xlink:href="#DejaVuSans-57" transform="translate(912.40625 0)"/>
      <use xlink:href="#DejaVuSans-4c" transform="translate(951.609375 0)"/>
      <use xlink:href="#DejaVuSans-52" transform="translate(979.390625 0)"/>
      <use xlink:href="#DejaVuSans-51" transform="translate(1040.578125 0)"/>
      <use xlink:href="#DejaVuSans-56" transform="translate(1103.953125 0)"/>
     </g>
    </g>
    <g id="line2d_44">
     <path d="M 527.795312 61.942031 
L 537.795312 61.942031 
L 547.795312 61.942031 
" style="fill: none; stroke: #ff0000; stroke-width: 1.5; stroke-linecap: square"/>
    </g>
    <g id="text_33">
     <!-- SOR Iterations -->
     <g transform="translate(555.795312 65.442031) scale(0.1 -0.1)">
      <use xlink:href="#DejaVuSans-36"/>
      <use xlink:href="#DejaVuSans-32" transform="translate(63.484375 0)"/>
      <use xlink:href="#DejaVuSans-35" transform="translate(142.203125 0)"/>
      <use xlink:href="#DejaVuSans-3" transform="translate(211.6875 0)"/>
      <use xlink:href="#DejaVuSans-2c" transform="translate(243.46875 0)"/>
      <use xlink:href="#DejaVuSans-57" transform="translate(272.96875 0)"/>
      <use xlink:href="#DejaVuSans-48" transform="translate(312.171875 0)"/>
      <use xlink:href="#DejaVuSans-55" transform="translate(373.703125 0)"/>
      <use xlink:href="#DejaVuSans-44" transform="translate(414.8125 0)"/>
      <use xlink:href="#DejaVuSans-57" transform="translate(476.09375 0)"/>
      <use xlink:href="#DejaVuSans-4c" transform="translate(515.296875 0)"/>
      <use xlink:href="#DejaVuSans-52" transform="translate(543.078125 0)"/>
      <use xlink:href="#DejaVuSans-51" transform="translate(604.265625 0)"/>
      <use xlink:href="#DejaVuSans-56" transform="translate(667.640625 0)"/>
     </g>
    </g>
   </g>
  </g>
  <g id="text_34">
   <!-- Number of iterations for SOR to converge vs $\omega$ -->
   <g transform="translate(205.44 16.032) scale(0.12 -0.12)">
    <defs>
     <path id="DejaVuSans-31" d="M 628 4666 
L 1478 4666 
L 3547 763 
L 3547 4666 
L 4159 4666 
L 4159 0 
L 3309 0 
L 1241 3903 
L 1241 0 
L 628 0 
L 628 4666 
z
" transform="scale(0.015625)"/>
     <path id="DejaVuSans-50" d="M 3328 2828 
Q 3544 3216 3844 3400 
Q 4144 3584 4550 3584 
Q 5097 3584 5394 3201 
Q 5691 2819 5691 2113 
L 5691 0 
L 5113 0 
L 5113 2094 
Q 5113 2597 4934 2840 
Q 4756 3084 4391 3084 
Q 3944 3084 3684 2787 
Q 3425 2491 3425 1978 
L 3425 0 
L 2847 0 
L 2847 2094 
Q 2847 2600 2669 2842 
Q 2491 3084 2119 3084 
Q 1678 3084 1418 2786 
Q 1159 2488 1159 1978 
L 1159 0 
L 581 0 
L 581 3500 
L 1159 3500 
L 1159 2956 
Q 1356 3278 1631 3431 
Q 1906 3584 2284 3584 
Q 2666 3584 2933 3390 
Q 3200 3197 3328 2828 
z
" transform="scale(0.015625)"/>
     <path id="DejaVuSans-45" d="M 3116 1747 
Q 3116 2381 2855 2742 
Q 2594 3103 2138 3103 
Q 1681 3103 1420 2742 
Q 1159 2381 1159 1747 
Q 1159 1113 1420 752 
Q 1681 391 2138 391 
Q 2594 391 2855 752 
Q 3116 1113 3116 1747 
z
M 1159 2969 
Q 1341 3281 1617 3432 
Q 1894 3584 2278 3584 
Q 2916 3584 3314 3078 
Q 3713 2572 3713 1747 
Q 3713 922 3314 415 
Q 2916 -91 2278 -91 
Q 1894 -91 1617 61 
Q 1341 213 1159 525 
L 1159 0 
L 581 0 
L 581 4863 
L 1159 4863 
L 1159 2969 
z
" transform="scale(0.015625)"/>
     <path id="DejaVuSans-49" d="M 2375 4863 
L 2375 4384 
L 1825 4384 
Q 1516 4384 1395 4259 
Q 1275 4134 1275 3809 
L 1275 3500 
L 2222 3500 
L 2222 3053 
L 1275 3053 
L 1275 0 
L 697 0 
L 697 3053 
L 147 3053 
L 147 3500 
L 697 3500 
L 697 3744 
Q 697 4328 969 4595 
Q 1241 4863 1831 4863 
L 2375 4863 
z
" transform="scale(0.015625)"/>
    </defs>
    <use xlink:href="#DejaVuSans-31" transform="translate(0 0.015625)"/>
    <use xlink:href="#DejaVuSans-58" transform="translate(74.804688 0.015625)"/>
    <use xlink:href="#DejaVuSans-50" transform="translate(138.183594 0.015625)"/>
    <use xlink:href="#DejaVuSans-45" transform="translate(235.595703 0.015625)"/>
    <use xlink:href="#DejaVuSans-48" transform="translate(299.072266 0.015625)"/>
    <use xlink:href="#DejaVuSans-55" transform="translate(360.595703 0.015625)"/>
    <use xlink:href="#DejaVuSans-3" transform="translate(401.708984 0.015625)"/>
    <use xlink:href="#DejaVuSans-52" transform="translate(433.496094 0.015625)"/>
    <use xlink:href="#DejaVuSans-49" transform="translate(494.677734 0.015625)"/>
    <use xlink:href="#DejaVuSans-3" transform="translate(529.882812 0.015625)"/>
    <use xlink:href="#DejaVuSans-4c" transform="translate(561.669922 0.015625)"/>
    <use xlink:href="#DejaVuSans-57" transform="translate(589.453125 0.015625)"/>
    <use xlink:href="#DejaVuSans-48" transform="translate(628.662109 0.015625)"/>
    <use xlink:href="#DejaVuSans-55" transform="translate(690.185547 0.015625)"/>
    <use xlink:href="#DejaVuSans-44" transform="translate(731.298828 0.015625)"/>
    <use xlink:href="#DejaVuSans-57" transform="translate(792.578125 0.015625)"/>
    <use xlink:href="#DejaVuSans-4c" transform="translate(831.787109 0.015625)"/>
    <use xlink:href="#DejaVuSans-52" transform="translate(859.570312 0.015625)"/>
    <use xlink:href="#DejaVuSans-51" transform="translate(920.751953 0.015625)"/>
    <use xlink:href="#DejaVuSans-56" transform="translate(984.130859 0.015625)"/>
    <use xlink:href="#DejaVuSans-3" transform="translate(1036.230469 0.015625)"/>
    <use xlink:href="#DejaVuSans-49" transform="translate(1068.017578 0.015625)"/>
    <use xlink:href="#DejaVuSans-52" transform="translate(1103.222656 0.015625)"/>
    <use xlink:href="#DejaVuSans-55" transform="translate(1164.404297 0.015625)"/>
    <use xlink:href="#DejaVuSans-3" transform="translate(1205.517578 0.015625)"/>
    <use xlink:href="#DejaVuSans-36" transform="translate(1237.304688 0.015625)"/>
    <use xlink:href="#DejaVuSans-32" transform="translate(1300.78125 0.015625)"/>
    <use xlink:href="#DejaVuSans-35" transform="translate(1379.492188 0.015625)"/>
    <use xlink:href="#DejaVuSans-3" transform="translate(1448.974609 0.015625)"/>
    <use xlink:href="#DejaVuSans-57" transform="translate(1480.761719 0.015625)"/>
    <use xlink:href="#DejaVuSans-52" transform="translate(1519.970703 0.015625)"/>
    <use xlink:href="#DejaVuSans-3" transform="translate(1581.152344 0.015625)"/>
    <use xlink:href="#DejaVuSans-46" transform="translate(1612.939453 0.015625)"/>
    <use xlink:href="#DejaVuSans-52" transform="translate(1667.919922 0.015625)"/>
    <use xlink:href="#DejaVuSans-51" transform="translate(1729.101562 0.015625)"/>
    <use xlink:href="#DejaVuSans-59" transform="translate(1792.480469 0.015625)"/>
    <use xlink:href="#DejaVuSans-48" transform="translate(1851.660156 0.015625)"/>
    <use xlink:href="#DejaVuSans-55" transform="translate(1913.183594 0.015625)"/>
    <use xlink:href="#DejaVuSans-4a" transform="translate(1952.296875 0.015625)"/>
    <use xlink:href="#DejaVuSans-48" transform="translate(2015.773438 0.015625)"/>
    <use xlink:href="#DejaVuSans-3" transform="translate(2077.296875 0.015625)"/>
    <use xlink:href="#DejaVuSans-59" transform="translate(2109.083984 0.015625)"/>
    <use xlink:href="#DejaVuSans-56" transform="translate(2168.263672 0.015625)"/>
    <use xlink:href="#DejaVuSans-3" transform="translate(2220.363281 0.015625)"/>
    <use xlink:href="#DejaVuSans-Oblique-35d" transform="translate(2252.150391 0.015625)"/>
   </g>
  </g>
 </g>
 <defs>
  <clipPath id="pcc345d114d">
   <rect x="58.042344" y="33.842813" width="286.117656" height="269.634844"/>
  </clipPath>
  <clipPath id="pf4840d37a3">
   <rect x="394.282344" y="33.842813" width="286.117656" height="269.634844"/>
  </clipPath>
 </defs>
 <defs>
  <pattern id="hae615dec67" patternUnits="userSpaceOnUse" x="0" y="0" width="72" height="72">
   <rect x="0" y="0" width="73" height="73" fill="none"/>
   <path d="M -36 36 
L 36 -36 
M -32 40 
L 40 -32 
M -28 44 
L 44 -28 
M -24 48 
L 48 -24 
M -20 52 
L 52 -20 
M -16 56 
L 56 -16 
M -12 60 
L 60 -12 
M -8 64 
L 64 -8 
M -4 68 
L 68 -4 
M 0 72 
L 72 0 
M 4 76 
L 76 4 
M 8 80 
L 80 8 
M 12 84 
L 84 12 
M 16 88 
L 88 16 
M 20 92 
L 92 20 
M 24 96 
L 96 24 
M 28 100 
L 100 28 
M 32 104 
L 104 32 
M 36 108 
L 108 36 
M -36 36 
L 36 108 
M -32 32 
L 40 104 
M -28 28 
L 44 100 
M -24 24 
L 48 96 
M -20 20 
L 52 92 
M -16 16 
L 56 88 
M -12 12 
L 60 84 
M -8 8 
L 64 80 
M -4 4 
L 68 76 
M 0 0 
L 72 72 
M 4 -4 
L 76 68 
M 8 -8 
L 80 64 
M 12 -12 
L 84 60 
M 16 -16 
L 88 56 
M 20 -20 
L 92 52 
M 24 -24 
L 96 48 
M 28 -28 
L 100 44 
M 32 -32 
L 104 40 
M 36 -36 
L 108 36 
" style="fill: #ffa500; stroke: #ffa500; stroke-width: 1.0; stroke-linecap: butt; stroke-linejoin: miter"/>
  </pattern>
 </defs>
</svg>
